<?xml version="1.0" standalone="no"?>
<!DOCTYPE svg PUBLIC "-//W3C//DTD SVG 20010904//EN"
 "http://www.w3.org/TR/2001/REC-SVG-20010904/DTD/svg10.dtd">
<svg version="1.0" xmlns="http://www.w3.org/2000/svg"
 width="595.000000pt" height="580.000000pt" viewBox="0 0 595.000000 580.000000"
 preserveAspectRatio="xMidYMid meet">

<g transform="translate(0.000000,580.000000) scale(0.100000,-0.100000)"
fill="#000000" stroke="none">
<path d="M4285 5773 l-17 -28 23 22 c12 12 20 25 17 28 -3 3 -13 -7 -23 -22z"/>
<path d="M4515 5790 c-3 -5 -2 -10 4 -10 5 0 13 5 16 10 3 6 2 10 -4 10 -5 0
-13 -4 -16 -10z"/>
<path d="M4738 5793 c-10 -2 -18 -9 -18 -14 0 -6 10 -5 23 2 37 20 36 23 -5
12z"/>
<path d="M5115 5791 c-11 -5 -23 -7 -27 -4 -4 2 -15 -8 -24 -22 -9 -14 -34
-35 -55 -47 -33 -18 -51 -38 -35 -38 14 0 108 57 140 86 39 34 39 40 1 25z"/>
<path d="M5430 5790 c-11 -7 -2 -10 32 -10 26 0 50 5 53 10 8 13 -65 13 -85 0z"/>
<path d="M4470 5769 c-7 -11 -9 -23 -7 -26 3 -2 8 5 12 18 6 17 9 19 16 8 6
-9 9 -10 9 -2 0 22 -19 24 -30 2z"/>
<path d="M5728 5783 c7 -3 16 -2 19 1 4 3 -2 6 -13 5 -11 0 -14 -3 -6 -6z"/>
<path d="M4666 5765 c-11 -8 -15 -15 -9 -15 6 0 16 7 23 15 16 19 11 19 -14 0z"/>
<path d="M5205 5770 c-3 -5 -2 -10 4 -10 5 0 13 5 16 10 3 6 2 10 -4 10 -5 0
-13 -4 -16 -10z"/>
<path d="M4918 5746 c-26 -13 -45 -25 -42 -28 3 -3 -7 -15 -22 -27 -32 -25
-28 -26 20 -6 60 25 40 -1 -26 -35 -35 -18 -70 -39 -78 -47 -13 -13 -12 -14
10 -8 53 16 151 76 196 119 51 50 51 59 1 24 l-32 -23 18 28 c21 32 17 32 -45
3z"/>
<path d="M4599 5743 c-13 -16 -12 -17 4 -4 9 7 17 15 17 17 0 8 -8 3 -21 -13z"/>
<path d="M5405 5748 c-11 -6 -22 -15 -25 -19 -3 -4 -17 -13 -30 -19 l-25 -11
25 6 c14 2 34 5 45 5 17 0 17 2 5 10 -13 9 -13 10 1 10 8 0 24 7 35 15 24 18
0 21 -31 3z"/>
<path d="M4652 5703 c-38 -27 -69 -50 -67 -51 2 -2 21 8 42 22 20 14 41 26 46
26 4 0 20 11 35 25 40 37 23 31 -56 -22z"/>
<path d="M4781 5710 c-13 -11 -19 -20 -14 -20 6 0 18 9 28 20 23 25 17 25 -14
0z"/>
<path d="M4826 5705 c-11 -8 -17 -17 -14 -20 2 -3 13 4 23 15 21 23 18 25 -9
5z"/>
<path d="M5290 5710 c-8 -5 -10 -10 -5 -10 6 0 17 5 25 10 8 5 11 10 5 10 -5
0 -17 -5 -25 -10z"/>
<path d="M5142 5696 c-34 -19 -40 -29 -12 -21 33 10 70 35 50 34 -8 -1 -25 -7
-38 -13z"/>
<path d="M5050 5690 c-9 -6 -10 -10 -3 -10 6 0 15 5 18 10 8 12 4 12 -15 0z"/>
<path d="M4177 5662 c-10 -10 -17 -22 -17 -27 0 -4 9 2 20 15 11 13 20 25 20
27 0 7 -8 2 -23 -15z"/>
<path d="M4720 5638 c-30 -22 -57 -44 -60 -47 -3 -3 -22 -21 -43 -39 -21 -17
-34 -32 -30 -32 4 0 34 23 67 50 32 28 78 62 102 76 24 14 44 28 44 30 0 14
-32 -2 -80 -38z"/>
<path d="M5535 5669 c-16 -4 -48 -12 -70 -18 -53 -13 -115 -40 -94 -41 9 0 45
9 79 20 64 20 100 19 42 -1 -46 -16 -39 -29 8 -17 22 6 40 14 40 19 0 5 6 9
13 9 6 0 35 9 62 19 l50 20 -50 -1 c-27 -1 -63 -5 -80 -9z"/>
<path d="M5890 5669 c-83 -19 -95 -21 -80 -10 19 14 5 14 -43 0 -22 -6 -58
-29 -84 -55 -25 -24 -44 -44 -42 -44 2 0 28 7 58 15 30 8 58 12 63 9 5 -3 7 0
6 7 -2 6 13 16 32 21 19 4 42 12 50 17 9 5 35 12 58 16 26 4 42 12 42 21 0 15
-8 16 -60 3z"/>
<path d="M4439 5643 c-13 -15 -12 -15 9 -4 23 12 28 21 13 21 -5 0 -15 -7 -22
-17z"/>
<path d="M4655 5640 c-3 -5 -1 -10 4 -10 6 0 11 5 11 10 0 6 -2 10 -4 10 -3 0
-8 -4 -11 -10z"/>
<path d="M5065 5640 c-13 -5 -14 -9 -5 -9 8 0 24 4 35 9 13 5 14 9 5 9 -8 0
-24 -4 -35 -9z"/>
<path d="M5654 5635 c-10 -8 -27 -15 -36 -15 -10 0 -18 -5 -18 -11 0 -16 51
-2 75 22 23 22 8 26 -21 4z"/>
<path d="M5579 5626 c-34 -18 -69 -26 -137 -32 -80 -7 -95 -11 -117 -31 -11
-11 -35 -25 -53 -32 -18 -8 -31 -15 -30 -16 6 -5 113 21 133 32 18 10 113 37
175 51 14 3 36 13 49 23 28 22 17 25 -20 5z"/>
<path d="M4260 5615 c-7 -9 -8 -15 -2 -15 5 0 12 7 16 15 3 8 4 15 2 15 -2 0
-9 -7 -16 -15z"/>
<path d="M5910 5611 c0 -5 9 -7 20 -4 11 3 20 7 20 9 0 2 -9 4 -20 4 -11 0
-20 -4 -20 -9z"/>
<path d="M4795 5579 c-40 -25 -15 -25 27 1 18 11 26 20 18 19 -8 0 -28 -9 -45
-20z"/>
<path d="M4980 5585 c-15 -8 -19 -14 -10 -14 18 -1 46 16 40 23 -3 2 -16 -2
-30 -9z"/>
<path d="M5788 5593 c6 -2 18 -2 25 0 6 3 1 5 -13 5 -14 0 -19 -2 -12 -5z"/>
<path d="M4115 5579 c-4 -6 -5 -12 -2 -15 2 -3 7 2 10 11 7 17 1 20 -8 4z"/>
<path d="M5298 5583 c7 -3 16 -2 19 1 4 3 -2 6 -13 5 -11 0 -14 -3 -6 -6z"/>
<path d="M5545 5576 c-36 -9 -45 -14 -30 -18 18 -5 18 -6 1 -7 -11 -1 -16 -6
-13 -15 4 -10 -2 -16 -16 -19 -18 -3 -17 -5 6 -6 17 0 51 14 89 39 68 44 59
49 -37 26z"/>
<path d="M4005 5569 c-4 -6 -5 -12 -2 -15 2 -3 7 2 10 11 7 17 1 20 -8 4z"/>
<path d="M5777 5559 c-38 -9 -71 -19 -73 -22 -13 -13 157 4 198 20 l47 19 -52
0 c-29 0 -83 -7 -120 -17z m93 1 c-20 -13 -43 -13 -35 0 3 6 16 10 28 10 18 0
19 -2 7 -10z"/>
<path d="M4515 5539 c-28 -28 -28 -29 -5 -21 24 9 60 52 44 52 -5 0 -22 -14
-39 -31z"/>
<path d="M5263 5555 c-17 -7 -72 -23 -123 -35 -50 -13 -89 -25 -86 -27 3 -3
33 2 68 10 35 8 79 18 98 21 19 4 46 15 60 26 29 23 26 24 -17 5z"/>
<path d="M4416 5544 c-23 -23 -20 -30 4 -9 11 10 20 20 20 22 0 7 -9 2 -24
-13z"/>
<path d="M4169 5533 c-13 -16 -12 -17 4 -4 9 7 17 15 17 17 0 8 -8 3 -21 -13z"/>
<path d="M4216 5525 c-9 -26 -7 -32 5 -12 6 10 9 21 6 23 -2 3 -7 -2 -11 -11z"/>
<path d="M5650 5530 c0 -5 5 -10 11 -10 5 0 7 5 4 10 -3 6 -8 10 -11 10 -2 0
-4 -4 -4 -10z"/>
<path d="M4449 5504 c-23 -25 -23 -26 -2 -15 23 12 38 29 31 37 -3 2 -15 -8
-29 -22z"/>
<path d="M4706 5500 c-22 -17 -34 -30 -28 -30 6 0 26 13 44 30 42 38 34 38
-16 0z"/>
<path d="M4880 5516 c-19 -7 -52 -22 -73 -33 -35 -20 -37 -22 -15 -25 17 -3 8
-8 -34 -21 -32 -10 -58 -22 -58 -27 0 -5 8 -7 18 -3 9 3 2 -6 -17 -21 -19 -14
-39 -26 -45 -26 -5 0 -7 -3 -4 -6 4 -3 20 2 37 11 24 12 31 13 31 2 0 -7 -14
-18 -32 -25 -17 -6 -29 -15 -25 -18 4 -4 12 -2 20 4 7 6 24 13 39 16 37 6 90
35 83 45 -3 5 4 7 15 4 12 -3 20 0 20 7 0 8 8 10 23 7 20 -6 21 -5 4 8 -17 12
-15 15 25 33 24 11 56 25 72 31 43 18 26 22 -21 6 -40 -14 -90 -40 -138 -71
-14 -9 -29 -14 -34 -12 -6 1 15 20 46 41 31 20 50 37 42 37 -10 1 -9 4 4 11 9
5 21 8 25 5 4 -2 19 4 32 15 29 22 12 24 -40 5z"/>
<path d="M5800 5520 c-47 -4 -102 -15 -122 -24 -21 -9 -50 -16 -65 -17 -15 0
-22 -3 -15 -6 22 -9 1 -23 -35 -23 -20 0 -33 -3 -30 -6 9 -10 87 -13 82 -3 -3
4 9 11 27 14 17 4 38 14 46 21 7 8 18 14 25 14 6 0 2 -7 -9 -16 -22 -18 -25
-18 96 14 56 15 123 44 95 40 -5 0 -48 -4 -95 -8z"/>
<path d="M5355 5510 l-40 -7 50 -1 c28 -1 57 3 65 8 18 11 -11 11 -75 0z"/>
<path d="M4535 5500 c-3 -5 -1 -10 4 -10 6 0 11 5 11 10 0 6 -2 10 -4 10 -3 0
-8 -4 -11 -10z"/>
<path d="M5216 5502 c-4 -6 -29 -14 -57 -18 -27 -4 -52 -11 -55 -15 -3 -5 -17
-9 -32 -9 -15 0 -36 -7 -46 -15 -11 -8 -27 -15 -37 -15 -9 0 -22 -7 -29 -15
-15 -18 -4 -19 38 -4 17 6 33 17 36 25 6 15 36 20 36 5 0 -5 -8 -12 -17 -14
-12 -3 -9 -5 8 -6 15 0 29 5 32 13 3 8 30 20 61 27 65 14 80 22 74 40 -3 10
-6 10 -12 1z"/>
<path d="M5930 5499 c0 -6 -7 -8 -16 -5 -8 3 -25 1 -36 -5 -11 -6 -34 -13 -50
-16 -16 -2 -46 -11 -66 -19 l-37 -14 60 5 c77 7 165 35 165 52 0 7 -4 13 -10
13 -5 0 -10 -5 -10 -11z"/>
<path d="M4146 5453 c-13 -21 -21 -42 -18 -47 5 -9 19 10 22 29 0 6 8 20 16
33 8 12 12 22 9 22 -2 0 -15 -17 -29 -37z"/>
<path d="M4386 5469 c-22 -22 -9 -26 19 -6 10 8 14 16 9 19 -5 3 -18 -3 -28
-13z"/>
<path d="M4574 5474 c-18 -14 -18 -15 4 -4 12 6 22 13 22 15 0 8 -5 6 -26 -11z"/>
<path d="M5420 5480 c-12 -8 -10 -10 10 -9 14 0 34 4 45 9 17 7 16 9 -10 9
-16 0 -37 -4 -45 -9z"/>
<path d="M5311 5469 c-13 -5 -22 -12 -19 -14 6 -6 58 12 58 20 0 7 -11 5 -39
-6z"/>
<path d="M4412 5450 c-18 -11 -35 -26 -38 -34 -3 -8 -15 -16 -26 -19 -11 -3
-17 -10 -13 -16 10 -18 19 -13 73 39 56 54 57 62 4 30z"/>
<path d="M4955 5454 c-50 -18 -67 -34 -36 -34 13 0 20 4 16 11 -4 6 -1 9 6 8
20 -4 59 11 59 22 0 5 -1 9 -2 8 -2 0 -21 -7 -43 -15z"/>
<path d="M3989 5434 c-24 -61 -33 -74 -48 -74 -21 0 -51 -34 -86 -95 -16 -27
-35 -58 -43 -68 -8 -9 -13 -19 -10 -22 3 -3 18 11 33 31 21 28 30 33 37 23 6
-10 7 -7 3 9 -5 16 -2 22 9 22 9 0 16 6 16 13 0 6 17 31 38 54 36 39 78 121
67 131 -2 3 -9 -8 -16 -24z"/>
<path d="M5215 5450 c-17 -7 -14 -9 13 -9 20 -1 31 3 27 9 -7 12 -13 12 -40 0z"/>
<path d="M4060 5400 c-7 -17 -10 -33 -8 -36 3 -3 11 9 17 27 14 42 7 49 -9 9z"/>
<path d="M4614 5420 c-21 -8 -40 -28 -33 -35 2 -1 20 8 39 21 35 24 33 30 -6
14z"/>
<path d="M4477 5385 c-37 -26 -52 -44 -19 -26 23 14 68 50 62 51 -3 0 -22 -11
-43 -25z"/>
<path d="M5400 5402 c-39 -6 -49 -22 -13 -22 18 0 35 5 38 11 9 14 5 16 -25
11z"/>
<path d="M5450 5400 c0 -13 11 -13 30 0 12 8 11 10 -7 10 -13 0 -23 -4 -23
-10z"/>
<path d="M4169 5374 l-24 -27 28 18 c15 9 27 21 27 26 0 14 -5 11 -31 -17z"/>
<path d="M4654 5385 c-10 -8 -14 -15 -8 -15 6 0 17 7 24 15 16 19 9 19 -16 0z"/>
<path d="M5290 5390 c-12 -8 -11 -10 7 -10 12 0 25 5 28 10 8 13 -15 13 -35 0z"/>
<path d="M5848 5383 c7 -3 16 -2 19 1 4 3 -2 6 -13 5 -11 0 -14 -3 -6 -6z"/>
<path d="M4010 5369 c0 -5 5 -7 10 -4 6 3 10 8 10 11 0 2 -4 4 -10 4 -5 0 -10
-5 -10 -11z"/>
<path d="M4256 5371 c-4 -7 -5 -15 -2 -18 9 -9 19 4 14 18 -4 11 -6 11 -12 0z"/>
<path d="M5565 5370 c-8 -13 5 -13 25 0 13 8 13 10 -2 10 -9 0 -20 -4 -23 -10z"/>
<path d="M5903 5373 c9 -2 25 -2 35 0 9 3 1 5 -18 5 -19 0 -27 -2 -17 -5z"/>
<path d="M4590 5363 c-8 -4 -21 -13 -29 -21 -13 -13 -12 -14 9 -7 14 4 32 13
40 21 15 14 7 17 -20 7z"/>
<path d="M4920 5350 c-77 -30 -95 -39 -85 -39 6 -1 -3 -10 -20 -21 -48 -32 -7
-23 46 10 27 16 69 35 95 41 31 8 41 14 32 20 -16 11 -13 11 -68 -11z"/>
<path d="M5050 5360 c-13 -8 -13 -10 2 -10 9 0 20 5 23 10 8 13 -5 13 -25 0z"/>
<path d="M5253 5359 c-38 -11 -51 -28 -32 -40 18 -12 78 -4 115 16 25 13 26
15 8 15 -12 0 -38 -7 -59 -16 -54 -22 -68 -11 -15 14 47 21 38 27 -17 11z"/>
<path d="M5686 5344 c-32 -13 -60 -25 -63 -27 -6 -7 120 -7 141 -1 33 11 -4
23 -38 13 -39 -11 -49 -11 -42 0 3 5 21 12 41 15 19 4 37 11 40 16 9 15 -15
10 -79 -16z"/>
<path d="M4309 5343 c-61 -75 -74 -117 -23 -69 18 16 31 21 35 15 4 -6 7 1 7
15 0 16 -5 23 -12 19 -6 -3 -2 3 8 15 11 12 15 22 9 22 -5 0 -16 -8 -24 -17z"/>
<path d="M5580 5340 c-24 -15 -7 -19 20 -5 15 8 19 14 10 14 -8 1 -22 -3 -30
-9z"/>
<path d="M4510 5330 c-12 -8 -11 -10 8 -10 12 0 22 5 22 10 0 13 -11 13 -30 0z"/>
<path d="M4255 5320 c-4 -6 -10 -8 -15 -5 -4 3 -24 -14 -44 -37 -20 -24 -36
-37 -36 -30 0 10 -4 10 -19 0 -11 -7 -17 -16 -15 -20 3 -4 0 -8 -5 -8 -6 0
-11 -8 -11 -17 0 -9 -19 -35 -43 -57 -24 -23 -36 -36 -28 -30 9 7 26 15 39 19
12 3 36 21 52 38 17 18 30 26 30 19 0 -9 7 -8 25 4 14 9 23 20 20 24 -3 4 2
10 10 14 8 3 15 15 15 26 0 11 3 20 8 20 4 0 12 11 19 25 11 25 10 34 -2 15z"/>
<path d="M4800 5320 c0 -5 5 -10 11 -10 5 0 7 5 4 10 -3 6 -8 10 -11 10 -2 0
-4 -4 -4 -10z"/>
<path d="M5831 5315 l-34 -12 38 -6 c28 -5 50 -1 79 13 39 19 32 20 -34 4 -20
-4 -22 -3 -10 5 19 13 5 12 -39 -4z"/>
<path d="M4729 5301 c-13 -11 -22 -22 -19 -24 3 -3 18 6 33 19 33 28 20 33
-14 5z"/>
<path d="M5064 5305 c-10 -8 -14 -15 -7 -15 19 0 43 11 43 21 0 13 -14 11 -36
-6z"/>
<path d="M5124 5305 c-18 -14 -18 -14 4 -8 12 3 22 9 22 14 0 12 -3 11 -26 -6z"/>
<path d="M4540 5300 c-9 -6 -10 -10 -3 -10 6 0 15 5 18 10 8 12 4 12 -15 0z"/>
<path d="M4670 5299 c0 -5 5 -7 10 -4 6 3 10 8 10 11 0 2 -4 4 -10 4 -5 0 -10
-5 -10 -11z"/>
<path d="M4449 5283 c-13 -15 -12 -15 11 -3 34 17 36 20 18 20 -9 0 -22 -7
-29 -17z"/>
<path d="M4634 5281 c4 -7 -2 -20 -16 -31 -26 -22 -13 -27 15 -6 20 15 22 32
5 42 -7 4 -8 3 -4 -5z"/>
<path d="M5620 5274 l-45 -14 40 6 c22 3 47 10 55 15 21 12 3 10 -50 -7z"/>
<path d="M4370 5260 c-18 -14 -21 -20 -9 -20 9 0 24 9 34 20 23 26 8 26 -25 0z"/>
<path d="M4542 5255 c-18 -13 -48 -37 -68 -54 -19 -17 -40 -31 -46 -31 -6 0
-9 -2 -6 -5 7 -8 58 16 58 27 0 4 6 8 13 8 6 0 32 18 57 40 49 43 44 52 -8 15z"/>
<path d="M5728 5273 c12 -2 32 -2 45 0 12 2 2 4 -23 4 -25 0 -35 -2 -22 -4z"/>
<path d="M5894 5265 c-4 -8 -16 -15 -28 -16 -11 0 -30 -5 -41 -10 -15 -7 -9
-8 20 -3 22 3 44 10 50 15 5 5 17 9 26 9 10 0 21 5 24 10 4 6 -5 10 -20 10
-14 0 -28 -7 -31 -15z"/>
<path d="M4927 5249 c-21 -11 -43 -17 -50 -13 -9 5 -9 4 0 -6 9 -10 21 -9 60
4 26 9 55 21 63 26 30 19 -34 10 -73 -11z"/>
<path d="M5858 5263 c7 -3 16 -2 19 1 4 3 -2 6 -13 5 -11 0 -14 -3 -6 -6z"/>
<path d="M3802 5240 c-18 -29 -15 -36 8 -15 20 18 26 35 12 35 -4 0 -13 -9
-20 -20z"/>
<path d="M4730 5235 c-25 -14 -55 -30 -67 -36 -13 -7 -23 -16 -23 -20 0 -5
-16 -11 -35 -15 -19 -3 -38 -10 -41 -15 -3 -5 -14 -9 -26 -9 -14 0 -18 -5 -14
-15 3 -10 1 -15 -7 -13 -17 4 -117 -43 -117 -54 0 -5 18 1 41 12 73 38 73 16
1 -25 -39 -22 -69 -41 -67 -43 2 -3 34 9 70 26 36 17 72 29 81 25 9 -3 37 4
62 15 26 12 65 28 86 37 22 8 37 17 35 20 -7 6 -87 -22 -130 -45 -20 -11 -43
-20 -50 -20 -17 1 78 47 174 86 37 15 71 32 74 37 4 7 -1 7 -13 3 -45 -19 -55
-19 -47 0 6 17 5 17 -17 1 -14 -9 -29 -17 -35 -17 -13 1 46 50 60 50 6 0 24 9
40 20 42 28 19 24 -35 -5z m-60 -85 c-8 -5 -22 -10 -30 -10 -13 0 -13 1 0 10
8 5 22 10 30 10 13 0 13 -1 0 -10z"/>
<path d="M5105 5245 c-22 -8 -66 -22 -97 -31 -32 -10 -58 -21 -58 -25 0 -3 30
-5 68 -3 37 1 78 3 92 4 14 0 43 16 64 35 l39 35 -34 -1 c-19 0 -52 -7 -74
-14z"/>
<path d="M5220 5240 c-14 -11 -22 -20 -19 -20 11 0 79 30 79 35 0 12 -37 3
-60 -15z"/>
<path d="M5700 5252 c0 -5 -22 -14 -50 -21 -27 -7 -52 -16 -55 -21 -7 -12 127
20 150 36 18 13 17 14 -13 14 -17 0 -32 -4 -32 -8z"/>
<path d="M5798 5253 c6 -2 18 -2 25 0 6 3 1 5 -13 5 -14 0 -19 -2 -12 -5z"/>
<path d="M4275 5240 c-3 -6 1 -7 9 -4 18 7 21 14 7 14 -6 0 -13 -4 -16 -10z"/>
<path d="M5920 5240 c0 -5 4 -10 9 -10 6 0 13 5 16 10 3 6 -1 10 -9 10 -9 0
-16 -4 -16 -10z"/>
<path d="M3965 5208 l-16 -33 20 25 c20 24 26 40 16 40 -2 0 -12 -15 -20 -32z"/>
<path d="M4235 5230 c-3 -5 1 -10 10 -10 9 0 13 5 10 10 -3 6 -8 10 -10 10 -2
0 -7 -4 -10 -10z"/>
<path d="M4425 5230 c-3 -5 -2 -10 4 -10 5 0 13 5 16 10 3 6 2 10 -4 10 -5 0
-13 -4 -16 -10z"/>
<path d="M5453 5217 c-45 -13 -86 -44 -77 -59 3 -5 0 -8 -7 -7 -19 4 -109 -24
-109 -33 0 -13 34 -8 54 7 11 8 25 15 30 15 6 -1 -1 -8 -16 -16 -16 -8 -28
-16 -28 -17 0 -2 28 -1 62 1 43 3 85 15 133 38 70 33 76 47 8 19 -49 -21 -55
-18 -13 5 43 24 18 26 -46 4 -81 -27 -58 -7 28 24 58 22 74 31 53 30 -16 0
-49 -5 -72 -11z"/>
<path d="M5778 5223 c7 -3 16 -2 19 1 4 3 -2 6 -13 5 -11 0 -14 -3 -6 -6z"/>
<path d="M4790 5200 c0 -5 7 -7 15 -4 8 4 15 8 15 10 0 2 -7 4 -15 4 -8 0 -15
-4 -15 -10z"/>
<path d="M5205 5200 c-3 -5 1 -10 9 -10 8 0 18 5 21 10 3 6 -1 10 -9 10 -8 0
-18 -4 -21 -10z"/>
<path d="M5254 5195 c-14 -11 -15 -14 -4 -14 8 0 24 6 34 14 15 11 16 15 5 15
-8 0 -24 -7 -35 -15z"/>
<path d="M5870 5198 c0 -5 18 -8 40 -8 22 0 40 5 40 10 0 6 -18 9 -40 8 -22
-2 -40 -6 -40 -10z"/>
<path d="M5645 5190 c-43 -11 -82 -29 -66 -29 19 -1 94 21 106 31 11 9 2 9
-40 -2z"/>
<path d="M5818 5193 c6 -2 18 -2 25 0 6 3 1 5 -13 5 -14 0 -19 -2 -12 -5z"/>
<path d="M5913 5173 c9 -2 23 -2 30 0 6 3 -1 5 -18 5 -16 0 -22 -2 -12 -5z"/>
<path d="M3780 5154 c0 -8 5 -12 10 -9 6 4 8 11 5 16 -9 14 -15 11 -15 -7z"/>
<path d="M4146 5155 c-11 -8 -15 -15 -9 -15 6 0 16 7 23 15 16 19 11 19 -14 0z"/>
<path d="M4900 5163 c-8 -2 -24 -9 -35 -14 -11 -5 -58 -20 -103 -35 -82 -25
-97 -38 -44 -40 15 0 32 7 39 15 6 9 14 13 18 10 10 -10 -24 -38 -53 -45 -53
-11 -57 -18 -17 -24 22 -3 54 -1 70 4 l30 10 -25 6 c-19 5 -11 8 35 14 33 5
73 15 90 24 16 8 41 18 55 23 23 7 22 7 -10 8 -19 0 -57 -6 -84 -14 -58 -18
-66 -18 -66 -5 0 6 6 10 13 10 6 0 26 7 42 16 17 9 41 19 55 23 13 4 20 10 15
13 -6 3 -17 3 -25 1z"/>
<path d="M4985 5155 l-30 -13 40 5 c22 3 47 9 55 14 26 15 -32 10 -65 -6z"/>
<path d="M5280 5159 c-14 -4 -43 -11 -64 -14 -28 -5 -35 -9 -26 -15 8 -5 22
-5 31 1 10 5 29 9 42 9 14 0 30 7 37 15 7 8 11 15 9 14 -2 -1 -15 -5 -29 -10z"/>
<path d="M4350 5153 c-8 -3 -17 -9 -20 -13 -3 -3 -21 -16 -41 -28 -64 -39 -67
-56 -4 -22 82 45 123 85 65 63z"/>
<path d="M3915 5139 c-12 -19 5 -23 22 -6 16 16 16 17 1 17 -9 0 -20 -5 -23
-11z"/>
<path d="M4245 5140 c-3 -6 1 -7 9 -4 18 7 21 14 7 14 -6 0 -13 -4 -16 -10z"/>
<path d="M5148 5143 c7 -3 16 -2 19 1 4 3 -2 6 -13 5 -11 0 -14 -3 -6 -6z"/>
<path d="M5633 5143 c15 -2 37 -2 50 0 12 2 0 4 -28 4 -27 0 -38 -2 -22 -4z"/>
<path d="M5790 5139 c0 -5 5 -7 10 -4 6 3 10 8 10 11 0 2 -4 4 -10 4 -5 0 -10
-5 -10 -11z"/>
<path d="M5015 5111 c-22 -11 -34 -20 -27 -20 25 -2 102 21 102 30 0 14 -32
10 -75 -10z"/>
<path d="M3799 5069 c-42 -49 -93 -128 -87 -134 2 -2 14 5 27 16 13 11 21 22
17 26 -3 3 3 12 14 20 11 8 20 19 20 25 0 6 10 25 23 42 54 72 47 75 -14 5z"/>
<path d="M4059 5103 c-13 -16 -12 -17 4 -4 9 7 17 15 17 17 0 8 -8 3 -21 -13z"/>
<path d="M5118 5113 c12 -2 30 -2 40 0 9 3 -1 5 -23 4 -22 0 -30 -2 -17 -4z"/>
<path d="M5520 5105 c-30 -7 -72 -16 -94 -20 -21 -3 -36 -9 -33 -11 7 -7 171
18 177 26 3 4 12 10 20 13 29 11 -12 6 -70 -8z"/>
<path d="M5613 5108 c-13 -6 -23 -15 -23 -19 0 -10 27 -1 55 18 24 16 1 17
-32 1z"/>
<path d="M3670 5097 c0 -10 -7 -32 -16 -49 -9 -16 -11 -27 -5 -23 21 12 40 61
30 76 -7 11 -9 11 -9 -4z"/>
<path d="M3616 5085 c-3 -8 -1 -15 4 -15 6 0 10 7 10 15 0 8 -2 15 -4 15 -2 0
-6 -7 -10 -15z"/>
<path d="M3995 5086 c-23 -25 -26 -40 -4 -19 12 12 21 24 18 27 -2 2 -9 -1
-14 -8z"/>
<path d="M5800 5090 c-12 -8 -11 -10 7 -10 12 0 25 5 28 10 8 13 -15 13 -35 0z"/>
<path d="M5885 5090 c-18 -8 -18 -9 5 -9 14 0 34 4 45 9 18 8 18 9 -5 9 -14 0
-34 -4 -45 -9z"/>
<path d="M3568 5069 c-4 -14 -18 -37 -30 -50 -39 -42 -91 -154 -83 -179 5 -15
4 -20 -4 -16 -6 4 -11 3 -11 -3 0 -6 -9 -15 -21 -22 -19 -10 -20 -8 -14 10 5
16 2 21 -12 21 -17 1 -17 1 0 11 9 5 17 19 17 30 0 20 0 20 -21 0 -17 -15 -20
-27 -15 -65 3 -36 1 -46 -10 -46 -10 0 -14 -8 -11 -25 4 -33 17 -44 17 -14 1
23 1 23 15 5 19 -25 19 -36 1 -36 -8 0 -17 -6 -19 -12 -4 -10 -6 -10 -6 0 -2
24 -21 1 -21 -24 0 -15 -4 -23 -11 -19 -9 6 -6 80 6 125 2 8 6 42 9 75 5 58 4
59 -9 29 -8 -17 -16 -70 -19 -118 -6 -96 -17 -128 -27 -81 l-6 30 -11 -25 c-8
-18 -11 -20 -11 -7 -1 10 5 33 13 51 15 36 19 106 6 106 -4 0 -10 -18 -14 -40
-3 -23 -13 -43 -21 -46 -8 -4 -15 -12 -15 -18 0 -7 -11 -34 -25 -62 l-26 -49
7 59 c3 33 8 66 12 74 3 10 1 13 -6 8 -6 -3 -13 -2 -17 4 -14 22 -21 7 -19
-42 1 -28 -1 -60 -4 -70 -4 -17 -7 -16 -22 9 -9 15 -16 40 -16 56 1 16 -3 27
-11 27 -8 0 -13 -13 -13 -35 0 -19 -4 -35 -9 -35 -6 0 -15 -27 -22 -61 -8 -40
-15 -56 -20 -47 -6 9 -9 9 -9 1 0 -6 5 -15 10 -18 13 -8 13 -42 1 -47 -15 -5
-24 -94 -13 -115 7 -12 6 -25 -3 -44 -12 -22 -12 -30 1 -54 8 -15 14 -35 14
-44 0 -9 6 -23 13 -30 10 -10 9 -11 -5 -6 -10 4 -18 15 -18 25 0 11 -4 22 -10
25 -6 4 -9 -13 -7 -44 1 -36 6 -50 15 -46 6 2 12 -2 12 -9 0 -8 4 -16 8 -18 5
-1 5 -14 1 -28 l-7 -25 -1 28 c-1 15 -6 27 -11 27 -6 0 -10 -7 -8 -16 2 -10
-3 -19 -9 -21 -7 -3 -13 2 -13 11 0 8 -4 17 -9 21 -6 3 -8 -11 -6 -32 2 -21 8
-39 14 -41 6 -2 8 -8 5 -14 -3 -5 3 -16 15 -24 25 -18 30 -67 6 -58 -8 4 -12
10 -9 16 3 5 0 17 -8 26 -17 20 -44 84 -40 95 1 5 -3 5 -9 1 -8 -5 -10 -2 -6
8 3 9 -1 27 -8 42 -12 22 -12 26 1 26 17 0 16 -3 4 40 -6 20 -6 36 -1 40 5 3
7 17 4 32 -8 43 -28 13 -26 -38 1 -24 -2 -44 -8 -44 -5 0 -9 13 -9 29 0 17 -4
32 -9 35 -5 3 -7 15 -4 25 3 10 0 22 -6 25 -13 9 -13 -9 2 -95 7 -36 18 -73
25 -82 8 -9 16 -36 19 -59 3 -24 12 -48 20 -54 7 -7 16 -25 18 -40 8 -58 44
-146 56 -138 6 3 6 10 1 17 -5 7 -12 27 -15 45 -6 30 -5 32 13 22 25 -13 30
-13 30 5 0 8 5 15 11 15 6 0 9 -7 5 -15 -3 -8 0 -18 7 -22 14 -9 47 -117 48
-160 l1 -28 8 29 c5 16 7 33 5 37 -3 3 1 12 9 18 11 10 13 1 10 -54 -2 -39 1
-65 7 -65 5 0 9 6 8 13 -1 6 -1 23 0 37 2 24 2 24 16 7 7 -11 11 -26 8 -34 -4
-10 0 -14 14 -11 23 3 87 -47 78 -62 -3 -5 -2 -10 3 -10 5 0 12 10 16 23 5 17
8 19 15 8 5 -8 7 -21 3 -29 -3 -10 -1 -13 6 -8 7 4 12 15 13 24 0 10 3 12 6 5
3 -10 9 -10 24 0 17 10 23 8 38 -13 17 -21 21 -22 37 -10 18 16 66 22 57 7 -3
-4 -11 -6 -18 -3 -14 5 -28 -17 -18 -28 3 -3 20 1 37 8 28 12 35 11 53 -4 16
-13 19 -20 11 -35 -9 -15 -8 -17 4 -12 12 4 14 0 11 -14 -4 -15 0 -22 16 -26
11 -3 21 -13 21 -23 0 -13 11 -20 39 -25 32 -5 38 -10 34 -26 -4 -15 0 -19 18
-19 23 -1 23 -1 5 -15 -18 -14 -16 -15 29 -15 26 0 45 -3 42 -7 -11 -11 45
-43 76 -43 15 0 27 -5 27 -11 0 -6 -9 -9 -20 -6 -11 3 -20 1 -20 -4 0 -5 7 -9
15 -9 8 0 15 -4 15 -10 0 -5 -7 -10 -15 -10 -8 0 -15 -4 -15 -9 0 -9 67 -20
134 -22 23 -1 32 -3 21 -6 -11 -2 -30 -6 -43 -9 -48 -10 -7 -24 76 -26 l87 -2
-80 -5 c-77 -6 -85 -21 -12 -21 18 0 39 -5 47 -10 11 -7 1 -10 -34 -10 -27 0
-47 -2 -45 -4 4 -4 103 -14 154 -16 16 0 17 -2 6 -9 -8 -5 -39 -7 -70 -3 -49
5 -54 3 -44 -10 8 -9 31 -15 58 -16 58 0 148 -13 141 -19 -5 -6 26 -38 45 -46
8 -3 5 -6 -8 -6 -13 -1 -23 4 -23 9 0 6 -12 10 -27 9 -25 0 -26 -1 -8 -9 18
-8 18 -9 2 -9 -10 -1 -15 -5 -12 -11 4 -6 64 -10 143 -11 75 -1 128 -4 118 -6
-11 -3 -25 -11 -33 -18 -7 -7 -21 -11 -32 -8 -10 3 -21 0 -25 -5 -7 -12 85
-23 121 -14 15 4 51 5 78 2 42 -4 46 -6 25 -12 -14 -4 -42 -8 -62 -8 -26 0
-38 -5 -38 -14 0 -10 -19 -17 -62 -22 -62 -8 -62 -8 -23 -14 l40 -6 -40 -8
c-22 -4 -49 -12 -60 -17 -26 -12 65 -3 152 15 34 7 60 9 57 4 -3 -4 2 -8 10
-8 9 0 16 3 16 8 0 4 19 8 43 9 l42 3 -40 -15 c-22 -8 -60 -15 -84 -15 -68 0
-41 -11 38 -16 38 -2 93 3 121 10 28 7 53 10 55 5 3 -4 20 -3 38 2 62 20 169
40 190 37 13 -2 -12 -12 -55 -23 -43 -10 -78 -22 -78 -26 0 -4 -10 -7 -22 -8
-13 -1 -45 -2 -73 -4 -72 -4 -177 -38 -183 -59 -2 -10 -9 -18 -16 -19 -23 -1
-60 -10 -65 -14 -2 -3 18 -5 45 -5 28 0 55 5 60 10 6 6 40 13 75 16 87 6 185
20 239 32 25 6 90 18 145 26 55 9 129 22 165 31 36 8 128 28 205 44 77 17 178
40 225 51 47 11 96 20 110 20 14 0 37 6 51 14 15 7 39 11 53 9 14 -3 26 -1 26
5 0 6 -9 8 -20 5 -21 -6 -29 12 -8 19 17 6 19 38 2 38 -9 0 -12 -4 -9 -10 3
-5 -1 -10 -10 -10 -9 0 -14 4 -11 9 3 5 -13 11 -37 14 -23 3 -58 10 -77 15
-34 10 -33 10 25 12 33 1 67 2 75 1 10 0 11 1 3 5 -18 8 -16 22 5 27 9 2 6 2
-8 0 -51 -8 -63 -8 -67 4 -2 6 4 14 14 17 10 3 -1 3 -24 0 -28 -4 -43 -2 -43
5 0 6 6 11 14 11 8 0 18 5 22 12 5 8 -4 9 -32 5 l-39 -6 35 29 c27 22 31 30
17 30 -10 0 -15 5 -12 10 4 7 -8 8 -37 4 -64 -11 -70 -10 -75 4 -3 7 4 12 16
12 11 0 23 5 26 10 4 6 11 7 17 4 6 -4 9 -1 6 7 -5 16 -33 16 -72 0 -18 -7
-33 -8 -38 -3 -6 6 2 12 19 17 24 6 25 8 10 16 -9 6 -22 7 -28 4 -5 -4 -16 -1
-24 5 -8 6 -23 9 -35 5 -31 -10 -24 12 8 23 27 9 27 9 4 16 -14 5 -29 3 -37
-4 -8 -6 -19 -9 -26 -5 -7 5 1 13 20 22 37 19 42 42 7 36 -21 -4 -24 -2 -19
16 3 12 10 21 17 21 6 0 4 4 -4 10 -8 5 -17 5 -20 0 -3 -5 -12 -5 -20 0 -11 7
-12 10 -2 10 7 0 11 4 7 10 -3 5 -12 7 -20 3 -26 -9 -16 4 18 26 31 21 32 21
5 15 -31 -7 -40 11 -10 19 9 3 2 5 -15 6 -35 1 -42 11 -19 30 13 11 12 15 -2
30 -13 13 -24 16 -47 9 -43 -12 -44 -11 -5 23 19 17 27 28 18 25 -13 -4 -18 0
-18 14 0 10 9 22 21 25 11 4 18 13 15 20 -2 7 2 16 10 19 8 3 14 11 14 17 0 8
-5 8 -15 -1 -9 -7 -29 -14 -45 -15 -24 -1 -28 1 -19 12 6 7 16 10 22 6 6 -3 7
-1 3 5 -4 7 3 17 19 24 18 8 22 14 13 19 -9 6 -8 10 5 15 21 8 23 24 3 24 -10
0 -13 9 -11 30 3 25 1 30 -18 30 -12 -1 -33 -7 -47 -15 -29 -17 -50 -19 -50
-6 0 5 38 28 85 50 47 22 85 45 85 50 0 5 9 7 20 4 11 -3 20 -1 20 5 0 17 -54
21 -84 5 -23 -12 -26 -17 -15 -25 19 -13 -114 -2 -140 12 -11 5 -38 10 -60 10
-24 0 -41 5 -41 11 0 8 -4 9 -13 0 -8 -6 -17 -8 -21 -4 -3 4 -13 -2 -20 -13
-8 -10 -18 -16 -22 -12 -4 4 -1 14 5 22 10 12 6 13 -31 8 -72 -11 -133 -8
-130 6 1 6 -5 12 -13 12 -8 0 -15 -4 -15 -10 0 -5 -10 -10 -22 -10 -21 0 -21
0 -2 15 17 13 18 14 1 15 -10 0 -28 6 -40 14 -20 13 -73 23 -135 25 -19 1 -22
5 -17 21 5 15 2 20 -14 20 -11 0 -22 4 -26 9 -3 6 8 8 25 6 16 -2 32 0 34 4 5
7 -198 38 -216 33 -13 -4 -9 16 5 21 6 2 -10 4 -38 4 -27 0 -53 -5 -57 -11 -4
-6 -10 -8 -13 -4 -3 3 2 14 12 24 17 17 17 17 -2 12 -11 -3 -37 -13 -57 -22
-23 -10 -38 -12 -38 -6 0 6 11 15 25 20 14 5 25 15 25 21 0 7 -7 8 -17 4 -10
-3 -31 -9 -48 -12 -16 -4 -40 -13 -52 -21 -14 -9 -23 -10 -23 -4 0 6 9 16 20
22 11 6 20 18 20 28 0 15 -2 15 -10 2 -9 -13 -11 -13 -19 0 -6 8 -13 11 -18 7
-4 -5 -1 -12 7 -17 17 -10 15 -12 -25 -28 -27 -11 -28 -11 -11 3 11 8 18 16
15 18 -16 10 -73 25 -80 21 -14 -8 -10 -24 5 -24 21 0 29 -32 12 -49 -14 -13
-15 -12 -10 12 3 19 0 27 -10 27 -8 0 -16 5 -18 10 -2 6 -13 2 -24 -9 -25 -23
-65 -31 -71 -13 -3 6 1 12 9 13 15 1 -20 17 -39 18 -7 1 -13 -6 -13 -15 0 -10
-6 -14 -15 -10 -10 4 -15 -1 -15 -14 0 -11 -4 -20 -10 -20 -5 0 -10 -8 -10
-17 0 -13 -3 -14 -12 -5 -14 14 -12 115 3 120 5 2 9 12 9 22 0 11 9 24 20 30
11 6 20 17 20 25 0 8 3 15 8 15 4 0 16 16 26 35 17 31 66 75 66 60 0 -11 -27
-34 -33 -29 -11 11 -17 -34 -8 -57 10 -24 10 -24 10 5 1 22 4 27 18 22 10 -4
14 -4 11 0 -12 11 11 44 30 44 15 -1 15 -2 -2 -15 -17 -13 -17 -15 -3 -15 9 0
21 8 26 18 9 15 12 15 21 2 8 -13 15 -10 42 18 18 17 27 32 20 32 -6 0 -12 -4
-12 -10 0 -5 -6 -10 -14 -10 -8 0 -17 -6 -20 -12 -3 -7 -4 -4 -1 8 4 16 1 20
-17 19 -12 -1 -24 -7 -26 -13 -4 -12 -32 -5 -32 8 0 4 21 18 46 29 25 12 64
33 86 47 22 14 43 23 46 20 7 -7 -28 -35 -44 -36 -7 0 -14 -6 -17 -13 -9 -24
42 -7 73 24 16 16 31 29 35 29 4 0 19 9 34 20 15 10 57 30 92 44 l64 24 -51
-3 c-34 -2 -75 -14 -120 -37 -38 -19 -109 -55 -158 -79 -107 -53 -172 -108
-197 -166 -21 -50 -34 -56 -24 -12 5 22 4 29 -4 25 -6 -4 -14 -25 -17 -47 -4
-22 -11 -42 -17 -46 -6 -4 -8 2 -5 15 4 12 2 25 -3 28 -5 3 -9 0 -9 -6 0 -6
-4 -8 -10 -5 -5 3 -7 20 -4 38 4 28 1 25 -22 -20 -15 -29 -31 -50 -35 -47 -12
7 -11 51 0 92 6 18 6 30 1 27 -9 -5 -55 -145 -52 -157 4 -15 -21 -8 -34 10
-13 16 -13 16 -14 0 0 -23 -16 -23 -47 2 -27 21 -48 27 -38 10 3 -6 3 -20 -1
-32 -6 -21 -7 -20 -19 8 l-12 29 -8 -37 c-10 -52 -20 -48 -20 7 1 27 -4 46
-12 49 -12 5 -19 -29 -13 -59 1 -5 -8 -1 -19 9 -13 12 -19 26 -15 38 4 14 0
18 -16 18 -14 0 -20 5 -17 13 3 8 1 20 -4 28 -7 11 -9 10 -9 -5 0 -11 -3 -16
-6 -13 -4 4 4 27 17 52 l24 45 -22 15 c-20 14 -21 17 -7 72 7 32 13 69 13 83
l-1 25 -10 -27 c-5 -16 -14 -28 -19 -28 -5 0 -7 12 -3 28 17 74 27 106 31 95
8 -22 21 -14 28 17 4 17 10 30 15 30 5 0 10 14 12 32 2 17 9 33 16 36 8 2 10
-3 6 -15 -5 -14 -4 -15 4 -3 6 8 8 18 6 22 -3 4 0 8 5 8 6 0 11 7 11 15 0 8 5
15 10 15 6 0 10 5 10 11 0 5 16 31 35 56 19 25 35 50 35 55 0 14 -83 -73 -99
-105 -8 -14 -18 -24 -23 -21 -12 8 -10 34 4 34 6 0 9 3 6 6 -4 3 7 32 23 65
17 35 29 72 27 87 l-3 27 -7 -26z m-124 -284 c-6 -14 -34 -35 -48 -35 -3 0 -3
7 0 15 4 8 10 13 14 10 4 -3 13 2 20 10 16 19 21 19 14 0z m-42 -130 c-2 -14
-8 -28 -13 -31 -10 -6 -11 2 -3 34 9 30 22 28 16 -3z m-162 1 c0 -3 -4 -8 -10
-11 -5 -3 -10 -1 -10 4 0 6 5 11 10 11 6 0 10 -2 10 -4z m134 -57 c-8 -13 -24
-1 -24 18 0 13 3 13 15 3 8 -7 12 -16 9 -21z m-156 -35 c-14 -14 -15 -14 -10
11 3 19 8 23 15 16 8 -8 7 -16 -5 -27z m-84 -39 c4 -34 3 -45 -4 -35 -9 14
-15 99 -6 89 2 -2 6 -26 10 -54z m163 -7 c-2 -13 -4 -3 -4 22 0 25 2 35 4 23
2 -13 2 -33 0 -45z m118 23 c-4 -17 -10 -31 -15 -31 -4 0 -3 16 3 35 13 42 22
39 12 -4z m-208 -33 c-3 -8 -6 -5 -6 6 -1 11 2 17 5 13 3 -3 4 -12 1 -19z
m-117 -19 c0 -10 -4 -19 -10 -19 -5 0 -10 12 -10 26 0 14 4 23 10 19 6 -3 10
-15 10 -26z m247 -16 c-3 -10 -5 -2 -5 17 0 19 2 27 5 18 2 -10 2 -26 0 -35z
m-117 -9 c0 -8 -4 -12 -10 -9 -5 3 -10 10 -10 16 0 5 5 9 10 9 6 0 10 -7 10
-16z m190 12 c0 -3 -4 -8 -10 -11 -5 -3 -10 -1 -10 4 0 6 5 11 10 11 6 0 10
-2 10 -4z m-24 -51 c1 -14 -2 -22 -7 -19 -11 6 -12 44 -1 44 4 0 8 -11 8 -25z
m-36 -6 c0 -6 -4 -7 -10 -4 -5 3 -10 11 -10 16 0 6 5 7 10 4 6 -3 10 -11 10
-16z m-133 -11 c-3 -8 -6 -5 -6 6 -1 11 2 17 5 13 3 -3 4 -12 1 -19z m107 -33
c3 -8 1 -15 -3 -15 -5 0 -11 7 -15 15 -3 8 -1 15 3 15 5 0 11 -7 15 -15z m-47
-17 c-3 -8 -6 -5 -6 6 -1 11 2 17 5 13 3 -3 4 -12 1 -19z m-200 -77 c17 -46 7
-53 -11 -10 -13 29 -22 32 -17 6 1 -5 -2 -6 -7 -3 -5 3 -7 19 -4 35 5 36 20
25 39 -28z m83 34 c0 -8 -2 -15 -4 -15 -2 0 -6 7 -10 15 -3 8 -1 15 4 15 6 0
10 -7 10 -15z m684 -20 c-4 -8 -8 -15 -10 -15 -2 0 -4 7 -4 15 0 8 4 15 10 15
5 0 7 -7 4 -15z m-24 -45 c0 -5 -4 -10 -10 -10 -5 0 -10 5 -10 10 0 6 5 10 10
10 6 0 10 -4 10 -10z m-243 -32 c-3 -8 -6 -5 -6 6 -1 11 2 17 5 13 3 -3 4 -12
1 -19z m230 -10 c-3 -8 -6 -5 -6 6 -1 11 2 17 5 13 3 -3 4 -12 1 -19z m35 -40
c-9 -20 -10 -17 -9 20 1 36 3 40 11 23 6 -14 5 -29 -2 -43z m113 30 c17 -3 16
-6 -12 -21 -28 -15 -33 -15 -33 -3 0 24 12 48 19 38 3 -5 15 -12 26 -14z
m-836 -50 c6 -18 7 -28 2 -23 -10 12 -25 55 -18 55 3 0 10 -15 16 -32z m-41
-3 c-3 -3 -9 2 -12 12 -6 14 -5 15 5 6 7 -7 10 -15 7 -18z m62 -88 c0 -5 -4
-5 -10 -2 -5 3 -10 14 -10 23 0 15 2 15 10 2 5 -8 10 -19 10 -23z m-49 -24
c-9 -16 -10 -14 -11 12 0 21 3 26 11 18 8 -8 8 -16 0 -30z m2144 -43 c-28 -12
-63 -12 -70 0 -4 6 12 10 42 9 36 0 43 -3 28 -9z m-88 -16 c-3 -3 -12 -4 -19
-1 -8 3 -5 6 6 6 11 1 17 -2 13 -5z m171 -6 c-3 -7 -31 -22 -64 -34 -32 -11
-83 -33 -113 -48 -29 -15 -60 -25 -68 -22 -8 3 -12 2 -9 -3 3 -4 -7 -8 -22 -8
-15 0 -43 -3 -62 -7 -19 -3 -28 -3 -20 0 8 3 38 17 67 31 29 14 58 23 65 20 7
-3 4 -6 -7 -6 -15 -1 -17 -3 -6 -10 8 -5 22 -4 35 3 58 33 86 52 86 58 0 9
-29 -1 -48 -15 -9 -7 -16 -7 -24 1 -7 7 -23 3 -55 -14 -24 -14 -52 -24 -61
-22 -11 2 4 15 42 36 59 32 93 41 81 22 -3 -5 1 -10 10 -10 9 0 14 4 11 9 -3
5 22 9 56 9 36 0 64 5 66 11 2 6 13 11 24 11 11 0 18 -5 16 -12z m-2211 -40
c-3 -7 -5 -2 -5 12 0 14 2 19 5 13 2 -7 2 -19 0 -25z m70 -80 c-3 -7 -5 -2 -5
12 0 14 2 19 5 13 2 -7 2 -19 0 -25z m2028 22 c-3 -5 -14 -10 -23 -9 -14 0
-13 2 3 9 27 11 27 11 20 0z m-1969 -85 c-4 -14 -12 -25 -18 -25 -9 0 -9 3 0
12 7 7 12 21 12 32 0 10 3 17 6 13 4 -3 4 -18 0 -32z m125 -96 c-9 -23 -10
-22 -10 11 -1 23 2 31 9 24 7 -7 7 -19 1 -35z m-66 2 c3 -5 1 -12 -5 -16 -5
-3 -10 1 -10 9 0 18 6 21 15 7z m335 -145 c0 -3 -4 -8 -10 -11 -5 -3 -10 -1
-10 4 0 6 5 11 10 11 6 0 10 -2 10 -4z m38 -18 c-6 -18 -28 -21 -28 -4 0 9 7
16 16 16 9 0 14 -5 12 -12z m1065 -205 c-7 -2 -21 -2 -30 0 -10 3 -4 5 12 5
17 0 24 -2 18 -5z m534 1 c-3 -3 -12 -4 -19 -1 -8 3 -5 6 6 6 11 1 17 -2 13
-5z m-1263 -23 c3 -4 -6 -6 -19 -3 -14 2 -25 6 -25 8 0 8 39 4 44 -5z m59 -8
c-7 -2 -19 -2 -25 0 -7 3 -2 5 12 5 14 0 19 -2 13 -5z m1537 -33 c-8 -5 -19
-10 -25 -10 -5 0 -3 5 5 10 8 5 20 10 25 10 6 0 3 -5 -5 -10z m44 -41 c-3 -6
-15 -9 -25 -6 -10 3 -19 1 -21 -3 -2 -4 -13 -10 -25 -14 -18 -6 -22 -4 -17 8
6 15 27 22 72 25 14 0 21 -3 16 -10z m-319 -59 c-11 -5 -27 -9 -35 -9 -13 -1
-13 0 0 9 8 5 24 9 35 9 l20 0 -20 -9z m-1002 -67 c-7 -2 -21 -2 -30 0 -10 3
-4 5 12 5 17 0 24 -2 18 -5z m45 -40 c-10 -2 -26 -2 -35 0 -10 3 -2 5 17 5 19
0 27 -2 18 -5z m1482 -13 c0 -5 -7 -7 -15 -4 -8 4 -12 10 -9 15 6 11 24 2 24
-11z m-1103 -86 c-12 -12 -152 -31 -171 -24 -16 7 -8 9 30 9 29 1 67 7 85 15
28 12 68 12 56 0z m-4 -41 c-7 -2 -21 -2 -30 0 -10 3 -4 5 12 5 17 0 24 -2 18
-5z"/>
<path d="M3903 5062 c-13 -15 -23 -31 -23 -37 1 -13 50 43 50 56 0 13 -3 12
-27 -19z"/>
<path d="M4016 5069 c-11 -11 -17 -21 -14 -24 2 -3 13 4 23 15 24 26 16 33 -9
9z"/>
<path d="M4188 5072 c-16 -9 -28 -20 -28 -25 0 -5 14 1 30 13 17 12 30 23 30
26 0 6 -2 5 -32 -14z"/>
<path d="M5140 5080 c-19 -12 127 -13 185 -1 32 7 18 9 -65 10 -58 0 -112 -4
-120 -9z"/>
<path d="M5698 5083 c6 -2 18 -2 25 0 6 3 1 5 -13 5 -14 0 -19 -2 -12 -5z"/>
<path d="M4635 5070 c-18 -8 -17 -9 8 -9 15 -1 27 4 27 9 0 12 -8 12 -35 0z"/>
<path d="M4937 5060 c-100 -22 -151 -45 -77 -35 36 5 143 32 195 50 31 10 -42
1 -118 -15z"/>
<path d="M5390 5050 c-103 -17 -198 -29 -232 -30 -10 0 -18 -4 -18 -8 0 -5 30
-5 68 0 92 12 262 38 291 45 15 4 22 2 17 -5 -4 -6 2 -8 16 -4 21 5 21 6 2 13
-25 10 -22 10 -144 -11z"/>
<path d="M5625 5063 c-11 -3 -23 -10 -26 -15 -4 -6 -39 -14 -79 -18 -39 -4
-76 -12 -82 -18 -6 -6 5 -7 34 -1 24 4 61 8 83 9 27 0 50 8 70 25 17 13 28 24
25 23 -3 0 -14 -3 -25 -5z"/>
<path d="M4076 5044 c-11 -7 -18 -16 -15 -18 2 -2 13 2 23 10 11 7 18 16 15
18 -2 2 -13 -2 -23 -10z"/>
<path d="M5026 5051 c-11 -4 -15 -10 -10 -13 10 -6 294 9 301 16 8 8 -270 4
-291 -3z"/>
<path d="M5661 5044 c-19 -8 -32 -17 -29 -20 7 -6 78 22 78 30 0 9 -12 7 -49
-10z"/>
<path d="M5748 5053 c7 -3 16 -2 19 1 4 3 -2 6 -13 5 -11 0 -14 -3 -6 -6z"/>
<path d="M5870 5048 c-36 -10 -75 -38 -53 -38 7 0 14 4 17 9 3 5 31 12 61 16
30 3 55 11 55 16 0 11 -34 10 -80 -3z"/>
<path d="M3601 5013 c-10 -26 -10 -27 4 -9 8 11 15 23 15 28 0 15 -7 8 -19
-19z"/>
<path d="M3812 5003 c-17 -20 -30 -38 -28 -40 9 -9 33 11 44 37 8 17 18 28 23
24 5 -3 9 0 9 5 0 20 -16 11 -48 -26z"/>
<path d="M4323 5022 c-18 -9 -35 -23 -37 -29 -3 -7 11 -2 32 11 20 12 44 25
52 29 13 5 13 5 0 6 -8 0 -29 -8 -47 -17z"/>
<path d="M5928 5023 c7 -3 16 -2 19 1 4 3 -2 6 -13 5 -11 0 -14 -3 -6 -6z"/>
<path d="M4950 5010 c-14 -4 -34 -6 -45 -3 -12 2 -54 -7 -95 -22 -49 -16 -62
-23 -37 -20 21 4 68 8 105 11 37 2 81 11 97 18 17 7 37 16 45 19 24 9 -42 6
-70 -3z"/>
<path d="M5355 5010 c-7 -12 2 -12 30 0 19 8 19 9 -2 9 -12 1 -25 -3 -28 -9z"/>
<path d="M5195 4995 c-149 -26 -181 -33 -155 -35 52 -4 108 2 185 22 125 31
112 37 -30 13z"/>
<path d="M5663 5003 c9 -2 23 -2 30 0 6 3 -1 5 -18 5 -16 0 -22 -2 -12 -5z"/>
<path d="M5871 4999 c-11 -5 -41 -9 -66 -11 -25 -2 -45 -6 -45 -10 0 -5 6 -8
13 -8 6 -1 35 -3 62 -6 65 -6 112 3 112 20 0 17 -46 25 -76 15z m-4 -25 c-3
-3 -12 -4 -19 -1 -8 3 -5 6 6 6 11 1 17 -2 13 -5z"/>
<path d="M5015 4990 c-19 -8 -19 -9 2 -9 12 -1 25 4 28 9 7 12 -2 12 -30 0z"/>
<path d="M5458 4983 c7 -3 16 -2 19 1 4 3 -2 6 -13 5 -11 0 -14 -3 -6 -6z"/>
<path d="M5650 4969 c-31 -6 -32 -7 -7 -8 64 -3 7 -31 -64 -31 -15 0 -31 -4
-34 -10 -7 -12 75 -7 131 9 78 21 56 55 -26 40z"/>
<path d="M4914 4948 c-4 -6 2 -7 15 -3 12 4 21 2 21 -4 0 -15 12 -14 33 2 16
11 13 12 -23 13 -22 1 -43 -3 -46 -8z"/>
<path d="M5415 4945 c-29 -13 -28 -13 25 -8 77 8 108 22 50 22 -25 0 -58 -6
-75 -14z"/>
<path d="M5568 4953 c7 -3 16 -2 19 1 4 3 -2 6 -13 5 -11 0 -14 -3 -6 -6z"/>
<path d="M5920 4950 c0 -5 4 -10 9 -10 6 0 13 5 16 10 3 6 -1 10 -9 10 -9 0
-16 -4 -16 -10z"/>
<path d="M5300 4940 c-11 -7 -5 -8 20 -4 43 8 51 14 19 14 -13 0 -31 -5 -39
-10z"/>
<path d="M5827 4934 c-3 -3 -27 -8 -54 -10 -124 -10 -173 -23 -92 -25 24 0 53
-5 64 -10 13 -6 -7 -7 -60 -3 -101 9 -198 6 -227 -6 -19 -7 -14 -9 27 -10 l50
-2 -50 -13 c-85 -20 -83 -22 15 -21 52 1 101 5 109 10 10 7 12 6 6 -4 -6 -9 2
-11 36 -7 24 3 58 10 75 15 18 6 37 6 45 1 8 -5 19 -9 24 -9 6 0 4 4 -4 9 -21
14 4 22 34 11 17 -7 24 -7 20 0 -4 6 6 10 22 10 31 0 83 20 83 33 0 11 -28 8
-32 -4 -2 -6 -26 -12 -53 -13 -53 -4 -46 1 40 27 44 14 46 16 19 16 -17 1 -50
-6 -73 -14 -22 -8 -41 -10 -41 -5 0 6 8 10 18 10 9 0 24 5 32 10 12 8 11 10
-6 10 -11 0 -23 -3 -27 -6z"/>
<path d="M4698 4923 c6 -2 18 -2 25 0 6 3 1 5 -13 5 -14 0 -19 -2 -12 -5z"/>
<path d="M5038 4923 c7 -3 16 -2 19 1 4 3 -2 6 -13 5 -11 0 -14 -3 -6 -6z"/>
<path d="M3381 4904 c0 -11 3 -14 6 -6 3 7 2 16 -1 19 -3 4 -6 -2 -5 -13z"/>
<path d="M5430 4912 c0 -4 16 -6 35 -4 19 2 35 6 35 8 0 2 -16 4 -35 4 -19 0
-35 -4 -35 -8z"/>
<path d="M4935 4900 c-3 -5 1 -10 9 -10 8 0 18 5 21 10 3 6 -1 10 -9 10 -8 0
-18 -4 -21 -10z"/>
<path d="M3426 4869 c-8 -42 0 -50 9 -9 4 17 5 34 2 36 -2 3 -7 -10 -11 -27z"/>
<path d="M5176 4886 c-17 -8 -24 -16 -18 -20 13 -8 52 10 52 24 0 6 -1 10 -2
9 -2 0 -16 -6 -32 -13z"/>
<path d="M5246 4891 c-4 -5 0 -12 6 -14 7 -3 1 -6 -14 -6 -17 -1 -28 -7 -28
-15 0 -8 -6 -16 -12 -19 -7 -2 -2 -2 12 0 30 6 109 42 95 44 -5 1 8 5 30 9 37
7 35 7 -22 9 -34 0 -64 -3 -67 -8z"/>
<path d="M5325 4863 c-27 -9 -44 -18 -37 -20 16 -6 100 16 108 28 7 13 -13 10
-71 -8z"/>
<path d="M5075 4850 c-9 -14 37 -21 70 -11 22 7 25 10 10 11 -11 1 -32 3 -47
5 -15 2 -30 0 -33 -5z"/>
<path d="M5360 4830 c0 -5 6 -10 14 -10 8 0 18 5 21 10 3 6 -3 10 -14 10 -12
0 -21 -4 -21 -10z"/>
<path d="M5790 4820 c-11 -7 -6 -10 20 -10 19 0 42 5 50 10 11 7 6 10 -20 10
-19 0 -42 -5 -50 -10z"/>
<path d="M3110 4802 c-20 -24 -21 -52 -3 -52 10 0 14 7 10 20 -3 10 0 21 6 23
5 1 8 9 6 15 -3 9 -9 7 -19 -6z"/>
<path d="M3226 4795 c-4 -14 -2 -33 3 -43 8 -13 10 -8 11 26 0 48 -5 54 -14
17z"/>
<path d="M5450 4813 c-76 -11 -90 -15 -90 -21 0 -4 33 -3 74 2 41 6 73 13 70
18 -5 8 -10 8 -54 1z"/>
<path d="M5893 4809 c-25 -9 -30 -19 -10 -19 15 0 43 17 37 23 -3 3 -15 1 -27
-4z"/>
<path d="M2942 4780 c0 -14 2 -19 5 -12 2 6 2 18 0 25 -3 6 -5 1 -5 -13z"/>
<path d="M5058 4793 c7 -3 16 -2 19 1 4 3 -2 6 -13 5 -11 0 -14 -3 -6 -6z"/>
<path d="M5163 4793 c9 -2 23 -2 30 0 6 3 -1 5 -18 5 -16 0 -22 -2 -12 -5z"/>
<path d="M5298 4793 c7 -3 16 -2 19 1 4 3 -2 6 -13 5 -11 0 -14 -3 -6 -6z"/>
<path d="M3150 4780 c0 -5 5 -10 10 -10 6 0 10 5 10 10 0 6 -4 10 -10 10 -5 0
-10 -4 -10 -10z"/>
<path d="M5725 4779 l-40 -6 40 -3 c39 -2 40 -2 9 -9 -31 -8 -65 -7 -166 4
-32 3 -58 4 -58 1 0 -2 24 -11 53 -20 40 -12 68 -13 122 -6 66 9 180 12 125 3
-14 -2 -77 -11 -140 -20 -98 -14 -111 -18 -86 -26 21 -7 30 -6 37 4 4 7 11 10
16 6 15 -16 -20 -24 -110 -27 -126 -4 -181 -1 -185 10 -2 6 -20 9 -40 9 -37
-1 -37 -1 -7 -8 l30 -7 -31 -6 c-17 -4 -47 -5 -67 -2 -19 2 -48 -1 -62 -6 -15
-6 -65 -11 -112 -11 -47 0 -107 -6 -134 -13 -26 -7 -46 -9 -43 -4 3 4 -4 8
-15 8 -26 0 -36 -17 -14 -23 14 -4 13 -5 -4 -6 -12 0 -23 4 -25 11 -3 8 -9 8
-24 0 -17 -10 -17 -11 -1 -12 9 0 17 -4 17 -10 0 -5 14 -7 33 -4 17 3 64 8
102 10 39 3 111 12 160 20 50 9 113 19 140 24 46 7 192 -3 203 -15 3 -3 -26
-6 -64 -6 l-69 -2 75 -9 c41 -4 89 -7 105 -5 l30 3 -32 8 c-18 5 -31 12 -28
16 6 10 94 10 101 -1 3 -5 -4 -9 -16 -9 -12 0 -18 -4 -15 -10 3 -5 17 -10 31
-10 13 0 24 5 24 10 0 6 17 9 38 8 36 -1 36 -1 5 -5 -59 -7 -35 -23 32 -21 36
1 68 -1 72 -5 3 -4 -14 -7 -38 -7 -36 -1 -41 -3 -26 -11 22 -13 92 -7 159 13
l47 14 -92 17 c-51 9 -106 18 -122 18 -24 1 -25 3 -7 6 12 2 22 9 22 14 0 5
10 9 23 8 21 0 21 -1 2 -8 -16 -7 -9 -10 30 -16 28 -4 82 -13 120 -21 99 -20
95 -22 95 42 0 54 -1 56 -22 50 -13 -3 -50 -9 -83 -12 -33 -4 -72 -13 -87 -21
-16 -7 -28 -9 -28 -4 0 5 -10 12 -22 14 -19 4 -18 4 5 6 16 0 75 8 133 17 98
16 104 18 104 40 0 17 -6 24 -20 24 -11 0 -20 -6 -20 -14 0 -12 -6 -13 -32 -4
-39 13 -98 16 -153 7z m150 -19 c18 -8 17 -9 -7 -9 -15 -1 -30 4 -33 9 -7 12
12 12 40 0z"/>
<path d="M3054 4753 c-6 -23 -8 -24 -19 -9 -11 15 -13 13 -18 -16 -2 -18 -1
-34 4 -36 14 -6 10 -52 -5 -58 -8 -3 -16 -14 -19 -25 -4 -17 -3 -18 9 -8 11 9
14 8 14 -4 0 -10 6 -14 14 -11 8 3 12 12 9 20 -7 19 16 145 29 161 7 9 7 13
-1 13 -6 0 -14 -12 -17 -27z"/>
<path d="M3955 4760 c-3 -5 -1 -10 4 -10 6 0 11 5 11 10 0 6 -2 10 -4 10 -3 0
-8 -4 -11 -10z"/>
<path d="M4567 4755 c-44 -15 -65 -32 -27 -20 44 14 70 24 70 30 0 6 3 7 -43
-10z"/>
<path d="M5375 4749 c-70 -16 -72 -22 -10 -31 77 -11 67 -11 160 -2 l80 8 -50
11 c-82 19 -138 23 -180 14z"/>
<path d="M4640 4741 c0 -5 -8 -12 -17 -14 -15 -4 -15 -5 -2 -6 9 0 22 6 29 14
9 10 9 15 1 15 -6 0 -11 -4 -11 -9z"/>
<path d="M4715 4723 c-18 -10 -25 -18 -17 -21 7 -2 19 1 27 8 8 7 47 15 87 20
l73 7 -70 1 c-47 1 -80 -4 -100 -15z"/>
<path d="M4910 4731 c21 -8 19 -9 -20 -10 -25 -1 -56 -8 -70 -17 -24 -14 -23
-14 25 -9 78 9 97 15 92 28 -2 7 -14 13 -28 14 l-24 2 25 -8z"/>
<path d="M4558 4713 c6 -2 18 -2 25 0 6 3 1 5 -13 5 -14 0 -19 -2 -12 -5z"/>
<path d="M4470 4700 c-12 -8 -12 -10 5 -9 11 0 29 4 40 9 18 8 18 9 -5 9 -14
0 -32 -4 -40 -9z"/>
<path d="M5168 4703 c6 -2 18 -2 25 0 6 3 1 5 -13 5 -14 0 -19 -2 -12 -5z"/>
<path d="M5223 4703 c9 -2 23 -2 30 0 6 3 -1 5 -18 5 -16 0 -22 -2 -12 -5z"/>
<path d="M5528 4703 c7 -3 16 -2 19 1 4 3 -2 6 -13 5 -11 0 -14 -3 -6 -6z"/>
<path d="M3487 4693 c-4 -3 -7 -11 -7 -17 0 -6 5 -5 12 2 6 6 9 14 7 17 -3 3
-9 2 -12 -2z"/>
<path d="M4590 4690 c-8 -5 -26 -10 -40 -10 -20 -1 -22 -2 -9 -10 17 -10 89 7
89 22 0 11 -21 10 -40 -2z"/>
<path d="M3857 4658 c-15 -18 -27 -37 -27 -43 0 -10 33 27 51 58 15 26 6 20
-24 -15z"/>
<path d="M4991 4680 c15 -4 53 -4 85 0 58 7 58 7 -26 8 -57 0 -76 -2 -59 -8z"/>
<path d="M4703 4663 c9 -2 23 -2 30 0 6 3 -1 5 -18 5 -16 0 -22 -2 -12 -5z"/>
<path d="M4790 4660 c-11 -8 -7 -9 15 -4 37 8 45 14 19 14 -10 0 -26 -5 -34
-10z"/>
<path d="M4508 4643 c7 -3 16 -2 19 1 4 3 -2 6 -13 5 -11 0 -14 -3 -6 -6z"/>
<path d="M5248 4643 c6 -2 18 -2 25 0 6 3 1 5 -13 5 -14 0 -19 -2 -12 -5z"/>
<path d="M5208 4633 c7 -3 16 -2 19 1 4 3 -2 6 -13 5 -11 0 -14 -3 -6 -6z"/>
<path d="M4418 4623 c7 -3 16 -2 19 1 4 3 -2 6 -13 5 -11 0 -14 -3 -6 -6z"/>
<path d="M2954 4608 c-14 -22 -22 -102 -16 -148 l6 -45 7 35 c5 23 3 37 -4 42
-8 5 -4 10 11 14 16 5 22 14 21 33 0 25 0 25 -9 4 -5 -13 -12 -23 -15 -23 -4
0 -4 4 0 9 6 11 14 91 9 91 -1 0 -6 -5 -10 -12z"/>
<path d="M4138 4613 c-10 -2 -18 -9 -18 -14 0 -6 8 -5 20 1 11 6 20 13 20 15
0 3 -1 4 -2 4 -2 -1 -11 -3 -20 -6z"/>
<path d="M4548 4613 c7 -3 16 -2 19 1 4 3 -2 6 -13 5 -11 0 -14 -3 -6 -6z"/>
<path d="M5142 4610 c-18 -4 -43 -6 -55 -4 -18 4 -18 3 3 -6 15 -7 45 -8 74
-4 34 4 47 3 42 -5 -5 -7 3 -11 21 -11 21 0 24 3 13 10 -13 8 -13 10 0 14 8 3
29 7 45 9 17 2 -1 4 -40 4 -38 1 -85 -3 -103 -7z"/>
<path d="M4635 4601 c-3 -5 -18 -12 -34 -16 -29 -6 -64 -35 -43 -35 6 0 13 4
16 9 3 5 18 12 33 16 14 3 36 13 47 21 17 11 18 14 4 14 -9 0 -19 -4 -23 -9z"/>
<path d="M4420 4590 c-13 -8 -13 -10 2 -10 9 0 20 5 23 10 8 13 -5 13 -25 0z"/>
<path d="M5868 4591 c-85 -9 -82 -21 5 -21 62 0 77 3 77 15 0 8 -6 14 -12 14
-7 -1 -39 -5 -70 -8z"/>
<path d="M5288 4583 c7 -3 16 -2 19 1 4 3 -2 6 -13 5 -11 0 -14 -3 -6 -6z"/>
<path d="M5536 4582 c-7 -7 -44 -8 -255 -12 -71 -2 -117 -6 -109 -11 20 -11
260 -14 364 -4 48 4 89 3 99 -2 12 -7 5 -10 -32 -11 -71 -3 -247 -23 -253 -29
-3 -3 33 -2 80 2 47 5 92 8 100 7 8 0 58 -4 111 -8 96 -7 169 0 169 15 0 5
-22 11 -48 15 -27 3 -73 12 -103 20 -83 21 -116 26 -123 18z"/>
<path d="M4818 4573 c7 -3 16 -2 19 1 4 3 -2 6 -13 5 -11 0 -14 -3 -6 -6z"/>
<path d="M4939 4556 c-4 -4 -42 -10 -136 -22 -29 -4 -50 -11 -47 -15 3 -5 0
-9 -6 -9 -6 0 -18 -7 -26 -15 -20 -20 -1 -19 37 0 16 9 34 13 39 10 6 -3 10
-2 10 3 0 6 10 8 23 5 18 -4 19 -3 7 6 -11 8 -3 11 35 11 28 0 68 7 90 15 39
14 40 14 9 15 -17 0 -33 -2 -35 -4z"/>
<path d="M4360 4531 c-24 -10 -46 -24 -48 -32 -2 -9 -1 -10 5 -3 4 6 25 17 45
23 21 7 40 17 43 22 8 11 9 12 -45 -10z"/>
<path d="M5870 4539 c0 -6 50 -19 71 -19 5 0 9 6 9 14 0 10 -12 14 -40 13 -22
-1 -40 -5 -40 -8z"/>
<path d="M4420 4525 c-14 -8 -19 -14 -10 -14 8 0 24 6 34 14 25 19 9 19 -24 0z"/>
<path d="M5050 4530 c-8 -5 -32 -10 -52 -10 -27 0 -38 -4 -38 -15 0 -8 -7 -15
-16 -15 -8 0 -13 -4 -10 -9 3 -4 -5 -6 -18 -4 -14 3 -25 -1 -28 -9 -4 -9 7
-14 41 -16 68 -4 278 -21 344 -28 39 -5 57 -3 57 5 0 10 -16 15 -47 14 -7 -1
-10 4 -6 10 4 7 0 8 -11 4 -10 -4 -62 -4 -115 0 l-96 7 90 9 c113 11 115 11
202 0 46 -6 79 -6 90 1 9 5 52 10 95 10 43 1 78 4 78 7 0 11 -154 20 -186 10
-18 -5 -52 -5 -85 0 -30 5 -67 7 -84 4 -16 -3 -86 -7 -155 -9 -123 -5 -124 -3
-15 22 22 6 32 10 23 11 -9 0 -22 3 -30 6 -7 3 -20 0 -28 -5z"/>
<path d="M3001 4516 c-8 -9 -8 -21 -2 -37 11 -27 12 -26 14 19 2 37 3 36 -12
18z"/>
<path d="M4267 4519 c7 -7 15 -10 18 -7 3 3 -2 9 -12 12 -14 6 -15 5 -6 -5z"/>
<path d="M5822 4524 c3 -3 27 -13 54 -23 l48 -19 -120 4 c-79 3 -112 1 -99 -5
11 -5 71 -10 133 -10 88 -1 112 2 112 13 0 8 -24 20 -58 30 -61 17 -79 20 -70
10z"/>
<path d="M4450 4510 c-8 -5 -10 -10 -5 -10 6 0 17 5 25 10 8 5 11 10 5 10 -5
0 -17 -5 -25 -10z"/>
<path d="M4565 4510 c-3 -6 1 -7 9 -4 18 7 21 14 7 14 -6 0 -13 -4 -16 -10z"/>
<path d="M4905 4510 l-20 -9 20 0 c11 0 27 4 35 9 13 9 13 10 0 9 -8 0 -24 -4
-35 -9z"/>
<path d="M3440 4489 c0 -5 5 -7 10 -4 6 3 10 8 10 11 0 2 -4 4 -10 4 -5 0 -10
-5 -10 -11z"/>
<path d="M4160 4438 c-27 -29 -50 -60 -50 -68 0 -9 -6 -22 -12 -28 -10 -10
-20 -62 -12 -62 1 0 24 20 50 45 27 25 61 48 77 52 15 3 27 9 27 13 0 5 3 17
6 27 5 17 5 17 -6 1 -6 -10 -21 -18 -33 -18 -14 0 -37 -18 -64 -47 -22 -27
-44 -45 -48 -41 -8 8 16 39 88 110 31 31 57 59 57 62 0 20 -36 -1 -80 -46z"/>
<path d="M2890 4470 c0 -5 5 -10 10 -10 6 0 10 5 10 10 0 6 -4 10 -10 10 -5 0
-10 -4 -10 -10z"/>
<path d="M2440 4444 c0 -14 4 -23 9 -20 5 3 7 15 4 26 -7 28 -13 25 -13 -6z"/>
<path d="M4770 4460 c-28 -6 -22 -7 27 -6 35 1 66 5 70 9 8 9 -51 7 -97 -3z"/>
<path d="M2975 4435 c11 -45 11 -54 0 -54 -5 0 -9 7 -8 16 0 9 -3 11 -8 6 -10
-10 0 -83 11 -83 5 0 6 -27 3 -59 -3 -33 -2 -72 2 -88 7 -23 11 -10 21 67 14
99 6 193 -17 215 -9 7 -10 2 -4 -20z"/>
<path d="M4315 4450 c-3 -5 -2 -10 4 -10 5 0 13 5 16 10 3 6 2 10 -4 10 -5 0
-13 -4 -16 -10z"/>
<path d="M5599 4456 c-2 -2 -58 -6 -124 -9 -66 -4 -121 -6 -123 -7 -2 0 0 -5
4 -11 8 -14 327 -3 332 11 2 6 10 10 18 10 9 0 12 -4 9 -10 -3 -5 -1 -10 4
-10 6 0 11 4 11 9 0 5 19 7 43 5 36 -3 38 -2 12 5 -30 9 -178 14 -186 7z
m-122 -22 c-3 -3 -12 -4 -19 -1 -8 3 -5 6 6 6 11 1 17 -2 13 -5z"/>
<path d="M5845 4450 c3 -5 13 -10 21 -10 8 0 12 5 9 10 -3 6 -13 10 -21 10 -8
0 -12 -4 -9 -10z"/>
<path d="M2914 4408 c1 -27 4 -48 8 -48 14 0 15 16 4 55 l-12 40 0 -47z"/>
<path d="M4272 4419 c-7 -12 -11 -24 -8 -27 6 -6 35 27 36 41 0 14 -15 7 -28
-14z"/>
<path d="M2480 4414 c0 -8 5 -12 10 -9 6 3 10 10 10 16 0 5 -4 9 -10 9 -5 0
-10 -7 -10 -16z"/>
<path d="M2880 4423 c0 -4 5 -15 10 -23 8 -13 10 -13 10 2 0 9 -4 20 -10 23
-5 3 -10 3 -10 -2z"/>
<path d="M5820 4421 c-20 -3 -15 -7 25 -17 28 -7 36 -12 20 -9 -17 2 -71 6
-120 9 -88 6 -89 6 -50 -9 l40 -15 -40 5 c-22 3 -51 8 -64 12 -17 4 -22 3 -17
-6 6 -8 1 -10 -16 -6 -33 8 -232 23 -240 19 -3 -2 -9 2 -12 8 -4 10 -8 10 -11
2 -4 -8 -29 -11 -73 -9 l-67 4 40 -14 c47 -16 44 -16 -55 -16 l-75 0 75 -15
c41 -8 98 -19 125 -24 28 -6 86 -12 130 -14 44 -3 68 -2 53 0 -16 3 -28 10
-28 15 0 6 12 8 28 5 15 -3 48 -8 74 -12 69 -9 72 -34 5 -35 l-52 -1 40 -8
c45 -9 205 -1 205 10 0 10 -59 24 -95 22 -25 -1 -27 0 -10 7 16 7 8 12 -43 26
-34 10 -61 20 -58 22 2 2 36 -5 76 -17 l72 -21 61 20 c33 12 72 21 86 20 15 0
-9 -11 -54 -25 l-80 -24 64 4 c35 2 68 9 74 15 6 6 23 11 38 11 40 0 59 10 59
31 0 13 -7 19 -21 19 -11 0 -18 4 -15 8 5 8 -50 10 -94 3z m-510 -40 c0 -5 -6
-11 -13 -14 -8 -3 -14 1 -14 9 0 8 6 14 14 14 7 0 13 -4 13 -9z m617 3 c-3 -3
-12 -4 -19 -1 -8 3 -5 6 6 6 11 1 17 -2 13 -5z m-270 -10 c-3 -3 -12 -4 -19
-1 -8 3 -5 6 6 6 11 1 17 -2 13 -5z m-214 -41 c-7 -2 -19 -2 -25 0 -7 3 -2 5
12 5 14 0 19 -2 13 -5z"/>
<path d="M2833 4370 c0 -30 2 -43 4 -27 2 15 2 39 0 55 -2 15 -4 2 -4 -28z"/>
<path d="M4050 4409 c0 -5 5 -7 10 -4 6 3 10 8 10 11 0 2 -4 4 -10 4 -5 0 -10
-5 -10 -11z"/>
<path d="M5025 4400 c25 -11 92 -11 125 0 17 5 -3 8 -60 8 -56 0 -78 -2 -65
-8z"/>
<path d="M3960 4388 c0 -9 5 -20 11 -23 17 -11 18 -2 3 19 -12 17 -14 17 -14
4z"/>
<path d="M4028 4365 c-25 -34 -22 -39 7 -13 24 21 32 38 18 38 -5 0 -16 -11
-25 -25z"/>
<path d="M4945 4379 c-4 -5 -36 -9 -73 -10 -55 0 -63 -2 -42 -10 14 -6 43 -7
65 -3 22 3 76 7 120 7 59 0 71 2 45 7 -73 15 -110 18 -115 9z"/>
<path d="M2410 4370 c-4 -36 3 -76 15 -89 12 -13 13 -9 8 25 -7 49 -21 85 -23
64z"/>
<path d="M4295 4370 c-3 -6 1 -7 9 -4 18 7 21 14 7 14 -6 0 -13 -4 -16 -10z"/>
<path d="M4036 4323 c-39 -50 -50 -87 -13 -41 26 31 60 88 54 88 -2 0 -21 -21
-41 -47z"/>
<path d="M4763 4363 c9 -2 23 -2 30 0 6 3 -1 5 -18 5 -16 0 -22 -2 -12 -5z"/>
<path d="M3917 4310 c-14 -27 -22 -52 -16 -55 5 -4 9 1 9 9 0 9 4 16 10 16 5
0 7 7 4 15 -4 11 -2 13 9 9 15 -6 62 35 51 45 -3 3 -14 -5 -25 -18 -12 -14
-19 -18 -19 -9 0 8 5 19 12 26 8 8 8 12 1 12 -5 0 -22 -22 -36 -50z"/>
<path d="M5026 4335 c-3 -8 -1 -15 3 -15 5 0 11 5 13 11 2 7 17 7 47 0 48 -11
89 -3 55 10 -36 14 -111 10 -118 -6z"/>
<path d="M4758 4333 c6 -2 18 -2 25 0 6 3 1 5 -13 5 -14 0 -19 -2 -12 -5z"/>
<path d="M4808 4333 c7 -3 16 -2 19 1 4 3 -2 6 -13 5 -11 0 -14 -3 -6 -6z"/>
<path d="M4945 4330 c27 -12 43 -12 25 0 -8 5 -22 9 -30 9 -10 0 -8 -3 5 -9z"/>
<path d="M5895 4330 c-16 -4 -47 -8 -68 -9 -25 -1 -36 -5 -31 -12 4 -7 22 -9
45 -6 39 5 64 -8 32 -16 -14 -4 -13 -5 5 -6 13 -1 22 5 22 14 0 9 9 15 25 15
16 0 25 6 25 15 0 16 -8 17 -55 5z"/>
<path d="M4870 4319 c0 -5 9 -9 20 -9 11 0 20 2 20 4 0 2 -9 6 -20 9 -11 3
-20 1 -20 -4z"/>
<path d="M5215 4320 c-3 -4 28 -12 67 -17 77 -9 124 -4 73 8 -54 13 -134 18
-140 9z"/>
<path d="M5090 4305 c25 -8 56 -14 70 -14 26 1 1 8 -80 23 -29 5 -27 4 10 -9z"/>
<path d="M4136 4294 c-17 -12 -17 -14 -4 -14 9 0 20 5 23 11 11 17 2 18 -19 3z"/>
<path d="M4055 4289 c-4 -6 -5 -12 -2 -15 2 -3 7 2 10 11 7 17 1 20 -8 4z"/>
<path d="M4955 4291 c13 -22 86 -35 197 -35 65 -1 118 -4 118 -8 0 -5 21 -7
48 -7 26 1 38 4 27 6 -11 3 -23 10 -27 16 -4 7 -25 12 -47 12 -22 0 -37 3 -35
7 3 5 1 8 -5 8 -5 0 -13 -5 -17 -11 -5 -8 -26 -9 -68 -4 -33 4 -85 7 -114 6
-34 -1 -51 2 -47 9 3 6 -3 10 -15 10 -12 0 -19 -4 -15 -9z"/>
<path d="M5733 4282 c-29 -2 -53 -7 -53 -11 0 -8 107 -7 116 2 10 9 -10 12
-63 9z"/>
<path d="M5910 4276 c-8 -7 -28 -17 -44 -20 -23 -6 -27 -4 -23 8 4 10 1 16 -8
16 -16 0 -16 -21 0 -32 6 -4 34 -7 63 -6 48 1 52 3 52 24 0 27 -18 31 -40 10z"/>
<path d="M5470 4270 c0 -5 5 -10 10 -10 6 0 10 5 10 10 0 6 -4 10 -10 10 -5 0
-10 -4 -10 -10z"/>
<path d="M2841 4254 c0 -11 3 -14 6 -6 3 7 2 16 -1 19 -3 4 -6 -2 -5 -13z"/>
<path d="M5420 4266 c0 -2 7 -7 16 -10 8 -3 12 -2 9 4 -6 10 -25 14 -25 6z"/>
<path d="M5380 4250 c19 -13 30 -13 30 0 0 6 -10 10 -22 10 -19 0 -20 -2 -8
-10z"/>
<path d="M4960 4230 c19 -13 30 -13 30 0 0 6 -10 10 -22 10 -19 0 -20 -2 -8
-10z"/>
<path d="M5505 4230 c-13 -5 20 -8 90 -8 84 0 101 2 70 9 -52 10 -134 10 -160
-1z"/>
<path d="M2840 4211 c0 -11 5 -23 10 -26 6 -3 10 1 10 9 0 9 0 19 1 23 0 4 -4
9 -10 11 -6 2 -11 -5 -11 -17z"/>
<path d="M5220 4219 c19 -5 50 -10 68 -10 17 -1 32 -5 32 -9 0 -5 8 -11 18
-14 18 -5 -42 1 -93 10 l-30 5 30 -17 c19 -10 61 -19 113 -22 154 -9 73 -16
-171 -15 -135 1 -224 -2 -202 -7 22 -4 98 -19 169 -34 71 -14 144 -26 163 -26
55 0 37 17 -25 23 -32 4 -69 11 -83 16 -24 10 -23 10 6 10 17 0 61 -6 99 -14
38 -8 72 -13 75 -11 4 3 26 7 50 11 29 4 41 3 36 -4 -3 -6 1 -11 9 -11 8 0 18
-5 22 -11 5 -8 0 -10 -17 -6 -56 13 -104 18 -89 9 8 -6 39 -13 69 -17 37 -5
49 -10 40 -16 -9 -6 -1 -7 21 -3 44 9 51 14 17 14 -15 0 -27 4 -27 10 0 6 28
8 73 4 39 -3 86 -1 102 5 27 8 24 10 -30 12 -33 1 -84 2 -112 1 -29 -1 -53 3
-53 8 0 6 43 10 105 10 63 0 105 4 105 10 0 6 28 10 64 10 36 0 68 5 71 10 3
6 28 10 56 10 46 0 49 1 49 27 l0 26 -192 -8 c-229 -9 -195 -10 -343 9 -66 8
-145 15 -175 15 -52 -1 -53 -1 -20 -10z m310 -39 c0 -5 -8 -10 -17 -10 -15 0
-16 2 -3 10 19 12 20 12 20 0z m345 -5 c-27 -8 -72 -15 -100 -16 -27 -1 -54
-5 -60 -9 -5 -4 -31 -10 -57 -12 -35 -4 -48 -2 -48 7 0 9 30 15 101 20 56 4
113 11 128 15 14 5 40 8 56 8 23 1 19 -2 -20 -13z m-388 -21 c-3 -3 -12 -4
-19 -1 -8 3 -5 6 6 6 11 1 17 -2 13 -5z"/>
<path d="M5065 4203 c28 -9 52 -19 55 -24 6 -9 87 -16 95 -7 6 6 -166 49 -188
47 -7 -1 11 -8 38 -16z"/>
<path d="M2425 4183 c3 -16 11 -32 17 -38 8 -7 9 -2 4 15 -3 14 -6 31 -6 38 0
6 -5 12 -11 12 -7 0 -9 -10 -4 -27z"/>
<path d="M4850 4203 c8 -3 29 -11 45 -19 32 -14 174 -15 149 -1 -13 7 -162 28
-194 26 -13 0 -13 -1 0 -6z"/>
<path d="M5008 4163 c7 -3 16 -2 19 1 4 3 -2 6 -13 5 -11 0 -14 -3 -6 -6z"/>
<path d="M2691 4134 c0 -11 3 -14 6 -6 3 7 2 16 -1 19 -3 4 -6 -2 -5 -13z"/>
<path d="M2887 4110 c3 -11 7 -20 9 -20 2 0 4 9 4 20 0 11 -4 20 -9 20 -5 0
-7 -9 -4 -20z"/>
<path d="M5749 4111 c12 -8 51 -4 51 5 0 2 -15 4 -32 4 -23 0 -29 -3 -19 -9z"/>
<path d="M5898 4103 c7 -3 16 -2 19 1 4 3 -2 6 -13 5 -11 0 -14 -3 -6 -6z"/>
<path d="M2290 4077 c0 -20 17 -40 28 -33 6 4 9 13 6 21 -7 18 -34 28 -34 12z"/>
<path d="M4868 4083 c7 -3 16 -2 19 1 4 3 -2 6 -13 5 -11 0 -14 -3 -6 -6z"/>
<path d="M5060 4080 c0 -13 11 -13 30 0 12 8 11 10 -7 10 -13 0 -23 -4 -23
-10z"/>
<path d="M5778 4083 c7 -3 16 -2 19 1 4 3 -2 6 -13 5 -11 0 -14 -3 -6 -6z"/>
<path d="M1900 4076 c0 -2 7 -6 15 -10 8 -3 15 -1 15 4 0 6 -7 10 -15 10 -8 0
-15 -2 -15 -4z"/>
<path d="M4976 4071 c5 -6 29 -13 54 -16 l45 -5 -45 15 c-53 17 -68 19 -54 6z"/>
<path d="M5110 4071 c0 -10 19 -25 25 -20 1 2 -3 10 -11 17 -8 7 -14 8 -14 3z"/>
<path d="M5365 4071 c8 -14 -39 -25 -78 -17 -24 4 -28 3 -17 -5 11 -8 6 -8
-20 -4 -39 8 -37 8 -64 6 -34 -2 -4 -18 46 -24 28 -4 48 -2 50 4 2 7 17 7 44
1 42 -10 80 1 69 19 -4 5 2 9 11 9 23 0 15 6 -19 14 -18 4 -26 3 -22 -3z"/>
<path d="M2850 4059 c0 -6 -7 -9 -15 -5 -11 4 -15 -2 -14 -22 1 -17 3 -20 6
-9 8 29 23 19 17 -12 -4 -16 -1 -32 5 -35 7 -5 11 3 11 21 0 15 3 38 6 51 4
13 2 22 -5 22 -6 0 -11 -5 -11 -11z"/>
<path d="M4940 4040 c-9 -6 -10 -10 -3 -10 6 0 15 5 18 10 8 12 4 12 -15 0z"/>
<path d="M5591 4040 c22 -13 117 -16 129 -4 6 6 -19 10 -68 12 -53 1 -72 -1
-61 -8z"/>
<path d="M5753 4043 c9 -2 23 -2 30 0 6 3 -1 5 -18 5 -16 0 -22 -2 -12 -5z"/>
<path d="M1981 4037 c28 -21 59 -36 59 -29 0 5 -11 14 -25 20 -24 11 -44 16
-34 9z"/>
<path d="M2267 4003 c-11 -3 -18 -13 -16 -26 3 -50 -1 -66 -16 -61 -18 7 -20
-18 -5 -47 12 -22 -8 -27 -28 -7 -9 9 -12 9 -12 -1 0 -8 -7 -10 -20 -6 -11 4
-20 2 -20 -4 0 -6 -4 -11 -10 -11 -5 0 -10 6 -10 13 0 8 -19 22 -42 32 -24 10
-63 27 -87 37 -57 24 -63 17 -9 -11 61 -31 81 -48 73 -60 -3 -6 -1 -11 4 -11
6 0 11 -4 11 -10 0 -5 -7 -10 -16 -10 -11 0 -14 -4 -7 -12 5 -7 14 -25 21 -40
10 -24 9 -26 -6 -21 -9 3 -23 11 -30 16 -8 6 -4 -5 8 -25 13 -23 17 -39 10
-43 -5 -3 -7 -18 -4 -33 l5 -27 -20 23 c-12 14 -22 18 -26 12 -4 -6 -15 -8
-25 -5 -30 10 -32 -12 -3 -24 25 -10 24 -11 -14 -6 -26 3 -43 1 -43 -5 0 -5
-24 -10 -52 -11 -29 0 -75 -4 -103 -9 l-50 -7 47 -2 c47 -1 80 -21 35 -21 -14
0 -40 -3 -58 -7 l-34 -8 45 -5 c29 -3 44 -10 42 -17 -1 -7 5 -13 13 -13 8 0
15 -7 15 -16 0 -8 4 -13 8 -10 5 3 9 -1 9 -9 0 -8 -4 -15 -9 -15 -5 0 -7 -4
-4 -9 4 -5 -9 -22 -26 -37 -28 -23 -29 -26 -10 -22 12 4 20 2 17 -2 -3 -5 1
-11 7 -13 7 -3 3 -6 -9 -6 -32 -1 -53 -12 -53 -26 0 -7 -6 -16 -12 -19 -9 -3
-8 -8 5 -16 9 -6 17 -16 17 -21 0 -6 -5 -7 -12 -3 -8 5 -9 2 -5 -9 4 -12 1
-17 -11 -17 -14 0 -15 -2 -2 -9 8 -6 18 -7 22 -5 4 3 5 -2 2 -10 -3 -8 -12
-12 -19 -10 -7 3 -16 1 -20 -5 -3 -6 1 -14 9 -17 18 -7 22 -34 5 -34 -6 0 -24
-13 -41 -30 -16 -16 -24 -30 -18 -30 7 0 10 -6 7 -14 -3 -7 -1 -18 5 -24 6 -6
6 -12 -1 -16 -6 -4 -11 -2 -11 5 0 7 -3 9 -6 6 -4 -4 -1 -13 6 -22 18 -22 -7
-20 -32 2 -17 15 -18 15 -18 -10 0 -21 -4 -25 -17 -21 -15 5 -15 4 -3 -5 8 -5
11 -13 8 -17 -4 -4 -3 -15 3 -25 7 -15 6 -19 -6 -19 -8 0 -15 -5 -15 -11 0 -6
7 -9 15 -5 8 3 15 1 15 -4 0 -6 -10 -10 -22 -10 -13 0 -29 -4 -37 -9 -11 -7
-10 -11 7 -20 11 -6 28 -11 36 -11 9 0 16 -5 16 -11 0 -7 -11 -8 -29 -4 -17 3
-32 2 -36 -4 -3 -7 2 -11 14 -11 11 0 23 -5 26 -10 4 -6 3 -10 -2 -9 -4 1 -18
1 -31 0 -22 -1 -22 -2 -6 -26 14 -22 14 -25 1 -25 -8 0 -17 -9 -20 -20 -3 -11
0 -20 6 -20 7 0 6 -4 -2 -9 -8 -5 -11 -16 -8 -24 8 -21 -3 -29 -21 -14 -13 10
-14 9 -8 -2 5 -8 3 -17 -5 -22 -12 -7 -11 -9 1 -10 10 0 8 -3 -5 -8 -12 -5
-26 -4 -34 3 -11 9 -13 7 -7 -12 6 -16 3 -22 -8 -22 -22 0 -20 -20 2 -20 15
-1 15 -2 -2 -15 -15 -11 -16 -15 -5 -15 8 0 20 5 27 12 9 9 12 9 12 0 0 -6
-12 -19 -26 -28 -14 -10 -21 -20 -15 -23 12 -8 9 -37 -7 -53 -14 -14 -16 -32
-3 -23 19 11 24 -18 6 -32 -18 -12 -18 -13 -1 -13 13 0 17 -7 14 -27 -3 -25
-7 -28 -41 -27 -42 1 -47 -19 -6 -24 13 -2 29 -8 34 -13 7 -7 4 -8 -7 -4 -11
5 -18 2 -18 -5 0 -6 9 -14 20 -17 30 -8 24 -21 -12 -26 -30 -4 -31 -5 -10 -12
12 -4 22 -12 22 -17 0 -5 -4 -7 -8 -4 -4 2 -14 1 -22 -5 -11 -6 -2 -9 30 -10
38 -1 41 -2 20 -9 -21 -7 -19 -8 17 -9 39 -1 72 -18 35 -17 -9 0 -42 -2 -72
-3 -46 -3 -50 -4 -25 -10 l30 -7 -45 -22 -45 -21 52 -1 c28 0 55 -5 58 -10 3
-6 18 -8 33 -5 26 5 26 5 5 -6 -13 -7 -23 -18 -23 -26 0 -7 -8 -13 -18 -13
-30 0 -33 -11 -9 -32 16 -15 18 -18 5 -14 -10 3 -20 0 -24 -6 -4 -7 -3 -8 4
-4 7 4 12 3 12 -3 0 -17 -33 -29 -70 -24 -33 4 -34 3 -16 -11 21 -17 86 -22
86 -7 0 5 24 13 54 16 42 6 54 11 54 24 0 9 3 24 7 34 5 12 2 17 -11 18 -15 0
-13 3 6 11 15 6 20 12 13 15 -10 3 -9 8 2 20 16 16 20 33 7 33 -5 0 -19 9 -32
20 -13 11 -18 20 -13 20 6 0 16 -7 23 -15 8 -9 21 -13 32 -9 16 5 18 1 16 -28
-2 -36 26 -88 47 -88 8 0 22 -11 33 -25 11 -14 25 -25 32 -25 9 0 11 -12 7
-44 -6 -42 -5 -43 19 -40 19 2 24 -1 20 -12 -3 -8 1 -17 9 -20 8 -4 12 -10 9
-15 -3 -5 -10 -6 -16 -3 -8 5 -9 1 -5 -10 4 -10 2 -26 -3 -37 -9 -16 -7 -19
12 -20 13 -1 29 -1 36 0 16 2 15 -5 -3 -32 -16 -25 -17 -190 0 -217 5 -8 10
-25 11 -38 4 -34 10 -37 38 -18 31 20 47 21 40 1 -4 -8 -12 -15 -20 -15 -8 0
-14 -7 -14 -16 0 -13 3 -14 14 -5 16 13 56 23 56 14 0 -3 -8 -12 -17 -20 -17
-14 -17 -14 2 -7 33 13 77 8 87 -10 5 -9 18 -16 28 -16 23 0 26 -10 8 -28 -17
-17 -3 -26 20 -13 14 8 24 7 38 -4 17 -13 18 -14 2 -15 -22 0 -24 -20 -2 -20
8 0 13 -4 10 -9 -4 -5 4 -7 16 -4 19 4 20 3 8 -6 -10 -7 -11 -11 -2 -11 6 0
12 -7 12 -16 0 -10 6 -14 15 -10 24 9 18 -21 -7 -39 -22 -15 -22 -15 8 -12 17
2 36 7 43 11 6 4 11 1 11 -7 0 -7 9 -23 20 -34 16 -18 18 -31 14 -75 -4 -38
-3 -49 5 -38 8 12 13 11 32 -10 15 -17 20 -19 16 -7 -9 23 5 22 26 -4 12 -14
15 -24 8 -32 -6 -8 -6 -29 2 -60 8 -38 8 -50 -2 -57 -10 -6 -10 -9 -1 -15 6
-4 9 -13 6 -21 -3 -8 0 -25 6 -39 9 -20 8 -28 -4 -42 -9 -10 -13 -24 -11 -30
3 -7 0 -13 -6 -13 -6 0 -11 -6 -11 -14 0 -10 7 -12 22 -8 13 3 19 1 15 -6 -4
-5 -2 -12 4 -14 11 -4 -17 -66 -36 -80 -6 -5 -5 -12 3 -20 9 -9 12 -9 12 1 0
17 29 45 38 37 3 -4 2 -10 -4 -14 -14 -9 -27 -45 -14 -37 17 11 11 -21 -10
-47 -11 -14 -19 -38 -19 -54 0 -23 -5 -64 -10 -82 -1 -1 -7 3 -15 10 -9 9 -11
17 -5 25 19 22 -12 25 -36 3 -29 -27 -46 -8 -19 21 18 20 18 20 -9 14 -23 -6
-27 -4 -24 11 1 11 6 25 10 32 5 6 6 12 3 12 -12 0 -76 -34 -76 -40 0 -14 -61
-70 -76 -70 -11 0 -2 12 22 31 37 29 63 69 45 69 -4 0 -16 -9 -25 -19 -10 -11
-24 -17 -32 -14 -16 6 -10 18 9 18 14 0 41 105 29 117 -5 5 -33 -17 -65 -51
-31 -32 -53 -61 -49 -65 3 -4 -1 -4 -11 -1 -14 6 -13 11 11 36 42 45 53 59 45
59 -20 -1 -72 -59 -78 -88 -6 -31 -24 -62 -37 -62 -7 0 -7 -4 1 -14 9 -11 8
-15 -5 -20 -10 -4 -22 -2 -27 3 -7 7 -16 7 -29 0 -10 -6 -18 -6 -18 0 0 15 30
21 53 10 21 -9 21 -9 4 5 -18 14 -17 16 14 45 17 17 27 31 20 31 -17 0 -14 14
9 40 35 41 21 70 -15 30 -10 -11 -23 -20 -29 -20 -6 0 4 14 21 32 30 30 32 30
50 13 17 -17 18 -17 21 -2 2 10 8 14 14 11 10 -7 48 29 48 46 0 5 -7 10 -15
10 -8 0 -15 -5 -15 -11 0 -6 -8 -8 -17 -5 -10 3 -25 1 -33 -5 -13 -9 -12 -10
2 -5 11 3 15 1 12 -8 -3 -8 -15 -14 -27 -13 -12 0 -31 -4 -42 -8 -11 -5 0 10
25 33 25 23 39 42 32 42 -7 0 -22 -9 -34 -20 -28 -26 -35 -18 -14 14 l16 26
-32 -6 c-33 -5 -33 -5 -10 12 12 9 22 21 22 26 0 5 -18 -4 -39 -21 -21 -17
-41 -31 -45 -31 -16 0 -95 -92 -90 -104 3 -8 12 -12 20 -9 9 3 14 -1 14 -12 0
-13 4 -15 13 -8 6 6 23 13 37 16 22 6 20 2 -15 -28 -22 -19 -46 -34 -52 -35
-23 0 -14 -15 19 -29 18 -8 27 -16 21 -18 -7 -3 -22 1 -35 7 -22 11 -22 10 -4
-4 21 -17 22 -17 -14 -34 -14 -7 -17 -10 -7 -7 10 3 15 1 12 -5 -3 -6 -17 -10
-31 -10 -13 0 -24 -5 -24 -11 0 -6 -7 -8 -16 -5 -12 5 -14 1 -8 -16 5 -16 3
-20 -9 -15 -22 8 -78 -15 -73 -30 3 -7 0 -13 -7 -13 -7 0 -25 -16 -41 -34 -16
-19 -34 -33 -40 -32 -6 2 -8 1 -3 -1 4 -3 4 -10 0 -16 -4 -6 8 0 26 14 57 42
116 79 127 79 5 0 23 13 39 30 16 16 33 30 38 30 5 0 26 14 47 30 21 17 42 30
47 30 12 0 42 32 40 42 -1 3 11 16 27 29 l29 22 -12 -21 c-6 -12 -9 -22 -5
-22 4 0 -1 -10 -12 -22 -19 -21 -70 -56 -265 -184 -60 -39 -119 -82 -132 -95
-12 -14 -29 -23 -37 -21 -11 3 -9 -1 4 -14 13 -14 20 -15 23 -6 6 17 20 15 27
-4 3 -8 2 -13 -3 -10 -8 5 -58 -41 -54 -50 1 -2 0 -11 -4 -19 -11 -31 8 -29
38 3 16 18 35 32 40 32 6 0 3 -7 -6 -16 -11 -12 -13 -20 -6 -27 8 -8 15 -5 26
9 14 18 14 18 15 -7 0 -15 -10 -34 -25 -47 -14 -12 -25 -26 -25 -32 0 -7 735
-10 2215 -10 l2215 0 0 660 c0 598 -1 660 -16 660 -9 0 -41 15 -72 34 -32 18
-113 65 -182 103 -69 38 -177 101 -240 140 -175 107 -337 189 -420 213 -146
43 -175 50 -198 50 -13 0 -20 -4 -17 -10 9 -15 -27 -11 -49 5 -22 17 -101 21
-91 5 4 -6 11 -8 16 -5 5 4 19 3 32 -1 l22 -8 -25 -6 c-23 -6 -22 -8 15 -18
22 -7 56 -12 75 -12 19 0 42 -5 50 -10 11 -7 4 -9 -25 -5 -22 2 -74 7 -115 10
-41 2 -93 7 -114 11 -28 5 -37 4 -32 -4 4 -7 16 -12 27 -12 10 0 19 -4 19 -9
0 -5 16 -12 36 -15 28 -6 33 -10 25 -20 -9 -11 2 -17 53 -30 36 -9 78 -17 93
-17 27 -2 27 -2 3 -6 -14 -3 -27 -9 -30 -13 -3 -5 -23 -2 -45 6 -47 16 -65 17
-65 4 0 -5 18 -15 40 -21 22 -7 47 -20 56 -30 15 -16 13 -16 -22 2 -21 10 -44
19 -52 19 -8 0 -25 9 -39 20 -20 15 -39 20 -85 19 l-58 -2 32 -23 c37 -27 27
-31 -25 -9 -49 20 -54 19 -26 -6 l24 -20 -30 6 c-16 4 -32 10 -35 14 -3 5 -16
11 -30 15 l-25 7 25 -20 25 -21 -30 0 -30 -1 28 -24 c15 -14 39 -25 53 -25 29
0 70 -24 78 -46 5 -12 -2 -11 -28 5 -18 12 -40 21 -47 21 -17 0 -119 50 -138
68 -8 8 -17 9 -20 4 -3 -5 -24 -8 -46 -6 -51 3 -95 -5 -95 -17 0 -6 9 -5 21 2
16 8 24 8 33 -1 8 -8 7 -10 -5 -5 -10 4 -20 2 -24 -4 -3 -6 1 -11 11 -11 10 0
14 -3 11 -7 -4 -3 2 -13 14 -21 11 -8 18 -20 15 -29 -4 -11 -1 -13 14 -8 11 3
28 1 37 -5 15 -10 14 -10 -9 -6 -15 3 -28 1 -30 -5 -2 -6 -25 9 -51 33 -35 31
-58 43 -84 45 l-36 2 31 -22 c18 -12 48 -32 69 -45 21 -13 56 -38 77 -57 21
-18 45 -31 52 -28 8 3 16 -2 20 -10 7 -19 55 -37 98 -37 17 0 38 -5 46 -10 10
-7 -7 -8 -55 -4 -84 8 -128 31 -237 124 -23 19 -43 34 -45 32 -9 -8 -73 23
-76 37 -3 10 -5 7 -6 -7 0 -13 -5 -20 -11 -17 -6 4 -10 12 -9 18 4 23 -14 47
-35 47 -17 0 -18 2 -6 10 12 8 9 10 -12 10 -15 0 -30 5 -33 10 -8 12 -45 13
-45 1 0 -5 12 -12 26 -15 15 -4 24 -9 22 -12 -10 -9 -58 16 -58 31 0 8 -7 15
-16 15 -10 0 -12 -5 -7 -12 18 -29 12 -40 -12 -24 -14 9 -27 16 -31 16 -14 0
21 -32 44 -41 46 -18 15 -19 -73 -4 -48 9 -96 13 -105 10 -10 -3 -21 -1 -25 5
-3 5 -16 10 -28 10 -18 0 -19 2 -7 10 12 7 8 12 -20 22 -19 7 -39 11 -44 10
-6 -2 -20 2 -33 9 -25 14 -46 3 -23 -11 25 -16 6 -19 -40 -8 -52 13 -96 38
-67 38 9 0 17 -4 17 -10 0 -5 17 -10 38 -10 l37 1 -27 17 c-27 16 -37 32 -20
32 4 0 18 -7 30 -16 19 -13 22 -13 22 -1 0 21 -48 50 -72 44 -14 -4 -18 -2
-14 9 3 9 -1 14 -12 14 -10 0 -27 7 -39 15 -13 9 -23 11 -25 5 -2 -7 -20 -7
-53 -1 -33 6 -54 6 -62 -1 -9 -7 -13 -7 -13 1 0 16 -18 13 -22 -4 -2 -11 -18
-7 -70 20 -37 19 -78 35 -90 36 -22 0 -22 1 -3 9 20 9 20 9 0 9 -12 1 -26 -4
-33 -11 -9 -9 -20 -5 -49 19 -21 16 -48 35 -61 42 -19 10 -21 15 -12 27 10 11
8 15 -6 20 -11 3 -28 10 -39 15 -11 5 -30 11 -42 14 -12 2 -32 9 -44 15 -17
10 -23 9 -30 -1 -5 -8 -9 -17 -9 -21 0 -5 -15 -8 -32 -8 -21 0 -28 3 -20 8 7
5 10 16 7 24 -4 9 -1 18 7 21 7 2 3 2 -9 0 -13 -2 -23 1 -23 7 0 6 -4 9 -9 6
-15 -9 -45 44 -32 57 8 8 11 7 11 -2 0 -18 65 -8 86 13 14 15 13 16 -11 16
-14 0 -36 6 -48 14 -12 7 -42 16 -67 20 -43 6 -44 5 -20 -9 l25 -15 -30 2
c-17 2 -30 9 -30 16 0 8 -8 19 -17 26 -25 18 -23 24 14 34 23 6 33 14 33 28 0
13 8 20 28 22 19 2 27 9 27 23 0 22 11 24 28 7 15 -15 28 -2 14 15 -19 22 -8
52 21 55 32 4 35 18 7 27 -28 9 -15 25 21 25 16 0 29 5 29 10 0 6 -4 10 -10
10 -5 0 -10 12 -10 26 0 14 4 23 10 19 6 -3 10 -2 10 4 0 5 -9 13 -21 16 -19
7 -20 7 -2 21 12 9 13 13 5 14 -9 0 -11 7 -7 19 4 15 0 20 -17 23 -13 2 -24
11 -26 21 -2 11 -11 28 -20 38 -10 11 -18 24 -18 29 -1 6 -2 13 -3 16 0 4 -8
1 -16 -6 -13 -10 -15 -9 -15 8 0 12 -5 24 -11 27 -6 4 -8 13 -5 21 3 8 0 14
-6 14 -6 0 -8 3 -5 6 4 4 13 2 20 -4 17 -15 27 -6 27 24 0 23 -23 39 -53 35
-21 -3 -67 37 -67 59 0 13 -1 13 -10 0 -6 -9 -10 -10 -10 -3 0 13 -50 68 -62
68 -9 0 -58 54 -58 64 0 8 -50 22 -90 26 -8 1 -17 3 -20 5 -14 8 -140 5 -140
-3 0 -5 -7 -7 -15 -4 -8 4 -17 2 -20 -4 -4 -5 -11 -6 -17 -3 -6 4 -29 -2 -52
-13 -23 -11 -66 -33 -96 -47 -77 -38 -115 -59 -161 -92 -51 -35 -73 -40 -59
-13 6 10 15 19 21 19 6 0 8 9 4 20 -5 14 -2 20 9 20 9 0 16 9 16 20 0 11 7 20
15 20 8 0 12 6 9 14 -3 8 3 16 15 19 14 3 18 11 14 26 -4 15 -1 21 11 21 9 0
24 17 34 38 12 25 23 36 36 34 14 -3 16 1 11 19 -6 18 -4 21 10 15 22 -8 45
10 45 36 0 15 5 19 19 15 14 -3 21 2 25 19 9 33 37 64 58 64 9 0 19 9 23 19 3
11 15 23 26 26 10 4 19 12 19 20 0 7 7 16 16 19 9 3 14 12 11 19 -21 50 -21
49 0 43 13 -4 27 2 44 21 42 45 69 90 69 112 0 11 9 25 20 31 12 7 20 21 20
38 0 15 4 42 10 61 5 19 6 39 3 44 -11 18 -12 111 -2 124 7 8 6 22 -5 45 -20
45 -24 74 -8 71 6 -2 12 6 12 17 0 11 -1 19 -2 19 -2 -1 -11 -3 -21 -6z m-166
-160 c13 -16 12 -17 -3 -4 -17 13 -22 21 -14 21 2 0 10 -8 17 -17z m-141 -387
c0 -3 -4 -8 -10 -11 -5 -3 -10 -1 -10 4 0 6 5 11 10 11 6 0 10 -2 10 -4z
m-230 -306 c0 -5 -4 -10 -10 -10 -5 0 -10 5 -10 10 0 6 5 10 10 10 6 0 10 -4
10 -10z m-55 -168 c-3 -3 -11 0 -18 7 -9 10 -8 11 6 5 10 -3 15 -9 12 -12z
m-48 -58 c-3 -3 -12 -4 -19 -1 -8 3 -5 6 6 6 11 1 17 -2 13 -5z m-112 -284 c3
-5 -1 -10 -9 -10 -9 0 -16 5 -16 10 0 6 4 10 9 10 6 0 13 -4 16 -10z m105
-390 c0 -61 -11 -76 -30 -40 -8 14 -7 25 2 41 11 18 11 22 0 26 -10 4 -10 8
-1 19 21 26 29 14 29 -46z m967 -146 c-3 -3 -12 -4 -19 -1 -8 3 -5 6 6 6 11 1
17 -2 13 -5z m-77 -64 c0 -5 -2 -10 -4 -10 -3 0 -8 5 -11 10 -3 6 -1 10 4 10
6 0 11 -4 11 -10z m280 -49 c0 -6 18 -20 40 -32 22 -13 40 -26 40 -29 0 -9 98
-70 111 -70 15 0 10 -17 -7 -24 -9 -4 -24 0 -34 9 -9 8 -22 15 -28 15 -7 0
-12 6 -12 14 0 18 -23 27 -40 16 -11 -7 -11 -14 -2 -34 9 -21 9 -26 -2 -26
-16 0 -38 24 -30 32 3 4 -3 15 -12 27 -13 15 -21 18 -31 9 -10 -8 -13 -7 -13
5 0 25 16 29 55 13 45 -19 46 -5 0 17 -20 10 -37 12 -40 7 -9 -15 -35 -12 -35
4 0 16 -27 29 -35 16 -3 -4 1 -11 7 -13 7 -3 4 -6 -8 -6 -31 -1 -37 11 -11 24
14 8 28 9 40 3 26 -13 36 1 13 18 -19 13 -19 14 7 14 15 0 27 -4 27 -9z m-155
-11 c3 -5 1 -10 -4 -10 -6 0 -11 5 -11 10 0 6 2 10 4 10 3 0 8 -4 11 -10z
m-145 -46 c0 -8 -5 -12 -10 -9 -6 4 -8 11 -5 16 9 14 15 11 15 -7z m180 -4 c0
-5 -4 -10 -9 -10 -6 0 -13 5 -16 10 -3 6 1 10 9 10 9 0 16 -4 16 -10z m70 -35
c36 -27 29 -35 -8 -10 -21 16 -22 15 -16 -17 l5 -33 -20 35 c-11 19 -20 38
-21 43 0 14 27 6 60 -18z m295 -65 c3 -5 19 -10 35 -10 16 0 35 -7 44 -15 8
-8 22 -15 30 -15 9 0 16 -4 16 -10 0 -5 8 -10 18 -11 9 0 12 -3 5 -5 -6 -3
-43 9 -82 25 -38 17 -77 31 -86 31 -9 0 -13 5 -10 10 3 6 10 10 15 10 5 0 12
-4 15 -10z m1812 4 c-3 -3 -12 -4 -19 -1 -8 3 -5 6 6 6 11 1 17 -2 13 -5z
m-1857 -24 c0 -5 -7 -10 -15 -10 -8 0 -15 5 -15 10 0 6 7 10 15 10 8 0 15 -4
15 -10z m1707 -26 c-3 -3 -12 -4 -19 -1 -8 3 -5 6 6 6 11 1 17 -2 13 -5z
m-1453 -39 c11 -8 15 -15 10 -15 -6 0 -19 7 -30 15 -10 8 -14 14 -9 14 6 0 19
-6 29 -14z m-1424 -25 c0 -5 -2 -10 -4 -10 -3 0 -8 5 -11 10 -3 6 -1 10 4 10
6 0 11 -4 11 -10z m1501 -67 c44 -20 54 -39 12 -21 -35 15 -70 38 -59 38 5 0
27 -8 47 -17z m279 7 c0 -5 -2 -10 -4 -10 -3 0 -8 5 -11 10 -3 6 -1 10 4 10 6
0 11 -4 11 -10z m1017 -6 c-3 -3 -12 -4 -19 -1 -8 3 -5 6 6 6 11 1 17 -2 13
-5z m-2797 -36 c0 -16 -3 -19 -11 -11 -6 6 -8 16 -5 22 11 17 16 13 16 -11z
m1750 12 c8 -5 11 -10 5 -10 -5 0 -17 5 -25 10 -8 5 -10 10 -5 10 6 0 17 -5
25 -10z m1276 -11 c3 -5 1 -9 -5 -9 -17 0 -41 12 -41 20 0 10 38 1 46 -11z
m-495 -47 c20 -12 40 -18 45 -14 4 4 2 -1 -5 -11 -13 -17 -15 -17 -35 1 -12
10 -38 26 -58 36 -21 9 -38 22 -37 29 0 9 2 9 6 0 7 -20 26 -15 19 5 -5 14 -3
13 11 -3 10 -11 34 -30 54 -43z m289 48 c0 -13 -20 -13 -40 0 -12 8 -9 10 13
10 15 0 27 -4 27 -10z m94 -9 c16 -4 31 -11 33 -17 2 -7 -16 -5 -47 5 -27 8
-50 19 -50 24 0 5 8 6 18 2 9 -4 30 -10 46 -14z m-704 -11 c0 -5 -9 -6 -20 -3
-11 3 -20 9 -20 13 0 5 9 6 20 3 11 -3 20 -9 20 -13z m-275 0 c3 -6 -1 -7 -9
-4 -18 7 -21 14 -7 14 6 0 13 -4 16 -10z m213 -15 c-3 -3 -9 2 -12 12 -6 14
-5 15 5 6 7 -7 10 -15 7 -18z m-498 -9 c0 -2 -9 -2 -20 1 -11 3 -20 9 -20 15
0 5 9 4 20 -2 11 -6 20 -12 20 -14z m1570 12 c0 -10 -17 -9 -50 2 -21 7 -20 8
12 7 21 -1 38 -5 38 -9z m-3200 -18 c0 -5 -4 -10 -10 -10 -5 0 -10 5 -10 10 0
6 5 10 10 10 6 0 10 -4 10 -10z m2041 -26 c17 -8 29 -18 26 -20 -6 -6 -67 23
-67 31 0 8 10 6 41 -11z m-706 -14 c3 -5 2 -10 -4 -10 -5 0 -13 5 -16 10 -3 6
-2 10 4 10 5 0 13 -4 16 -10z m824 -26 c12 -12 -8 -10 -34 2 l-30 14 30 -6
c16 -3 32 -8 34 -10z m556 -17 c7 -6 2 -8 -15 -3 -14 3 -31 6 -37 6 -7 0 -13
5 -13 10 0 12 50 2 65 -13z m-461 -7 c31 -10 77 -20 102 -21 25 -2 48 -7 51
-12 13 -21 -181 17 -227 44 -28 16 13 10 74 -11z m220 4 c5 -14 4 -15 -9 -4
-17 14 -19 20 -6 20 5 0 12 -7 15 -16z m276 -4 c0 -5 -5 -10 -11 -10 -5 0 -7
5 -4 10 3 6 8 10 11 10 2 0 4 -4 4 -10z m-635 -40 c-3 -5 12 -13 70 -35 11 -5
26 -7 33 -6 6 1 13 -8 13 -21 1 -13 3 -16 5 -8 6 19 78 15 95 -6 9 -11 6 -15
-20 -20 l-31 -6 24 -19 c13 -11 33 -19 44 -19 11 0 30 -12 42 -27 12 -16 23
-27 23 -26 5 6 46 -10 42 -17 -6 -9 -139 56 -179 88 -16 12 -37 22 -47 22 -10
0 -22 6 -26 13 -13 20 -82 57 -97 51 -9 -3 -13 2 -12 18 1 13 -3 29 -8 37 -9
12 -8 12 11 1 12 -8 20 -17 18 -20z m-995 -6 c0 -8 -4 -12 -10 -9 -5 3 -10 10
-10 16 0 5 5 9 10 9 6 0 10 -7 10 -16z m700 -4 c0 -5 -4 -10 -10 -10 -5 0 -10
5 -10 10 0 6 5 10 10 10 6 0 10 -4 10 -10z m-268 -30 c6 0 9 -3 6 -6 -9 -8
-48 14 -48 27 0 6 7 3 16 -5 8 -9 20 -16 26 -16z m-294 6 c-2 -5 7 -12 20 -17
24 -9 30 -29 10 -29 -7 -1 2 -7 21 -16 38 -16 50 -12 31 11 -10 12 -10 15 4
15 20 0 66 -47 66 -66 0 -8 7 -14 16 -14 11 0 13 -6 9 -19 -8 -25 4 -31 35
-19 23 9 24 11 7 21 -10 7 -28 20 -39 30 -27 22 -5 23 46 2 20 -8 36 -11 36
-6 0 5 18 1 40 -10 21 -10 45 -19 53 -19 7 0 18 -5 25 -12 6 -6 15 -9 19 -5 8
9 9 8 -57 40 -30 15 -47 27 -36 27 16 0 17 2 5 17 -13 15 -12 16 11 9 14 -5
39 -10 57 -11 18 -2 40 -10 48 -19 20 -20 49 -21 42 -2 -4 10 0 12 14 9 20 -6
27 -23 8 -23 -5 0 -7 -5 -3 -12 6 -9 9 -9 12 0 5 15 13 15 36 -3 15 -12 17
-17 7 -29 -11 -13 -9 -16 13 -22 13 -3 27 -11 29 -17 2 -7 3 -4 1 6 -6 41 58
26 148 -35 27 -19 58 -24 58 -10 0 4 -16 14 -35 21 -38 13 -49 36 -12 26 46
-13 77 -28 77 -36 0 -5 9 -9 20 -9 11 0 19 -6 17 -12 -1 -7 9 -14 22 -16 16
-3 21 0 16 9 -5 8 -4 10 4 5 6 -4 8 -12 5 -18 -6 -9 -77 -4 -110 9 -8 3 -14 1
-14 -5 0 -16 56 -34 97 -32 68 5 124 0 119 -9 -3 -5 -28 -8 -56 -7 -58 3 -70
-18 -19 -36 20 -7 27 -14 21 -20 -7 -7 -26 2 -58 26 -26 20 -57 36 -70 36 -12
0 -32 12 -43 26 -11 14 -25 23 -30 20 -5 -4 -12 -2 -16 3 -8 14 -94 71 -106
71 -19 0 -8 -20 19 -34 33 -17 58 -44 48 -53 -3 -3 -14 1 -24 10 -10 10 -25
17 -32 17 -8 0 -3 -8 10 -20 13 -11 31 -20 40 -20 9 0 35 -9 58 -20 22 -11 46
-20 52 -20 6 0 9 -4 6 -8 -7 -11 26 -27 89 -43 67 -16 92 -32 42 -25 -22 3
-47 0 -56 -6 -17 -10 -17 -12 3 -32 11 -11 29 -19 38 -18 10 2 18 -1 18 -6 0
-5 9 -12 21 -15 12 -3 18 -10 15 -15 -3 -6 -1 -12 4 -14 6 -2 -16 -3 -49 -3
-34 1 -64 5 -68 9 -5 5 7 6 26 4 30 -4 32 -4 16 8 -10 8 -29 11 -42 8 -14 -4
-23 -2 -23 5 0 6 -3 10 -7 9 -5 -1 -17 3 -28 8 -11 6 -39 9 -63 6 -37 -4 -42
-7 -36 -24 5 -17 4 -18 -15 -6 -17 10 -23 10 -29 0 -6 -9 -20 -2 -51 24 -23
20 -45 34 -48 30 -7 -7 71 -86 86 -86 6 0 11 -6 11 -14 0 -8 10 -22 22 -30 27
-19 15 -35 -13 -18 -18 12 -19 11 -7 -8 9 -14 20 -20 35 -17 13 2 28 -2 35
-10 6 -8 14 -10 17 -4 4 5 13 4 24 -4 16 -12 14 -14 -24 -20 -39 -7 -41 -9
-24 -21 10 -8 16 -17 12 -20 -4 -4 -12 -2 -19 3 -20 15 -50 24 -43 13 8 -13
-18 -13 -30 -1 -6 6 -26 12 -45 14 -47 6 -70 16 -70 33 0 8 -4 14 -10 14 -5 0
-10 -4 -10 -10 0 -5 -8 -10 -17 -9 -11 0 -13 3 -5 6 21 8 13 25 -8 18 -12 -4
-31 0 -45 9 -13 9 -31 16 -40 16 -8 0 -15 9 -15 20 0 16 -7 20 -30 20 -22 0
-28 4 -24 15 4 9 -3 16 -21 21 -19 5 -28 15 -32 36 -4 21 -8 26 -14 16 -14
-21 -12 -25 41 -78 28 -28 50 -45 50 -38 0 9 3 9 8 2 4 -6 22 -19 40 -29 36
-21 47 -53 12 -35 -11 5 -29 15 -40 20 -29 15 -45 13 -31 -3 6 -8 9 -16 6 -19
-3 -2 1 -5 7 -6 7 -1 34 -7 60 -13 l47 -12 -26 -14 c-28 -15 -46 -8 -23 8 12
9 12 10 -3 5 -10 -3 -27 -1 -38 4 -23 13 -24 7 -3 -15 27 -26 6 -31 -22 -4
-18 17 -37 24 -70 24 -34 1 -52 8 -75 28 -17 15 -35 27 -41 27 -5 0 -6 5 -3
10 4 6 -6 10 -23 10 -16 0 -32 3 -36 8 -4 4 -11 8 -14 8 -42 9 -52 18 -47 43
5 24 5 25 -4 3 -6 -12 -8 -29 -5 -37 4 -8 2 -15 -2 -15 -18 0 -31 16 -37 41
-7 26 -34 36 -121 45 -23 2 -38 23 -32 47 2 9 3 17 1 17 -2 0 -12 3 -22 6 -15
5 -15 4 -3 -5 8 -5 11 -13 7 -17 -4 -4 -31 16 -61 44 -29 28 -52 53 -49 56 3
2 -4 9 -15 15 -17 9 -21 8 -24 -10 l-3 -21 -27 21 c-14 12 -29 34 -33 49 -3
16 -18 35 -35 46 -17 9 -30 24 -30 33 0 11 5 9 20 -8 10 -13 19 -20 20 -15 0
4 12 1 26 -9 19 -12 25 -13 22 -3 -2 7 -17 19 -31 26 -28 14 -57 58 -57 88 0
12 9 6 28 -18 34 -45 92 -94 92 -78 0 7 7 10 18 6 12 -4 10 0 -7 14 -13 11
-20 20 -15 20 4 0 -2 9 -15 21 -24 23 -21 40 4 19 8 -7 15 -8 15 -2 0 5 -6 15
-14 21 -7 6 -13 23 -12 38 1 22 6 28 21 26 11 -1 23 3 26 9 8 13 65 15 76 4 4
-4 1 -11 -7 -17 -13 -8 -13 -10 0 -19 22 -14 30 -12 31 8 0 13 2 12 9 -5 11
-26 25 -30 34 -8 3 8 10 15 16 15 5 0 10 -7 10 -15 0 -8 8 -15 18 -15 14 0 15
2 2 10 -12 8 -11 12 8 30 26 25 75 20 91 -8 8 -13 12 -14 22 -5 16 16 -5 43
-35 43 -20 0 -19 1 4 14 27 15 53 16 48 2z m1016 -8 c-3 -5 -12 -4 -20 3 -19
16 -18 18 6 12 11 -3 17 -9 14 -15z m-610 -7 c15 -6 16 -10 7 -16 -7 -4 -16
-3 -20 2 -3 6 -13 13 -21 16 -13 5 -13 5 0 6 8 0 24 -4 34 -8z m801 -1 c3 -5
1 -10 -4 -10 -6 0 -11 5 -11 10 0 6 2 10 4 10 3 0 8 -4 11 -10z m-1345 -21 c0
-5 -7 -9 -15 -9 -8 0 -15 7 -15 15 0 9 6 12 15 9 8 -4 15 -10 15 -15z m617 5
c-3 -3 -12 -4 -19 -1 -8 3 -5 6 6 6 11 1 17 -2 13 -5z m94 -7 c12 4 18 -2 21
-19 2 -15 9 -22 20 -20 13 2 16 -2 11 -13 -4 -11 -13 -15 -27 -11 -11 3 -30 6
-41 6 -18 1 -18 2 3 10 32 13 27 27 -13 34 -20 4 -33 11 -30 17 4 5 13 6 22 0
9 -4 24 -6 34 -4z m253 -8 c3 -3 28 -4 56 -3 27 2 50 -1 50 -6 0 -6 -66 -9
-160 -8 -144 2 -170 5 -156 19 7 7 203 5 210 -2z m-1229 -9 c3 -5 1 -10 -4
-10 -6 0 -11 5 -11 10 0 6 2 10 4 10 3 0 8 -4 11 -10z m1208 -29 c9 -1 17 -4
17 -8 0 -5 -23 -7 -50 -7 -42 1 -48 -1 -39 -12 7 -8 21 -11 35 -8 13 4 30 2
37 -4 6 -6 17 -11 22 -12 20 -5 40 -12 63 -23 22 -10 22 -12 5 -19 -16 -6 -16
-7 5 -14 12 -3 22 -10 22 -15 0 -5 10 -8 23 -6 12 2 16 2 10 0 -7 -3 -13 -9
-13 -14 0 -5 -7 -9 -15 -9 -8 0 -15 5 -15 11 0 5 -4 7 -10 4 -5 -3 -34 10 -65
30 -30 19 -61 35 -67 35 -13 0 -96 38 -115 53 -7 5 -10 13 -8 18 5 7 34 7 158
0z m-1733 -11 c0 -5 -2 -10 -4 -10 -3 0 -8 5 -11 10 -3 6 -1 10 4 10 6 0 11
-4 11 -10z m420 0 c0 -5 -2 -10 -4 -10 -3 0 -8 5 -11 10 -3 6 -1 10 4 10 6 0
11 -4 11 -10z m1391 -10 c10 0 19 -5 19 -10 0 -12 -50 -2 -65 13 -7 7 -4 8 8
3 10 -3 27 -6 38 -6z m109 -3 c0 -16 -32 -19 -48 -4 -14 15 -13 16 16 14 18
-1 32 -6 32 -10z m-288 -42 c22 -30 -3 -34 -32 -5 -11 11 -27 20 -35 20 -8 0
-15 4 -15 9 0 11 72 -9 82 -24z m318 28 c-8 -3 -18 -11 -22 -17 -4 -6 -10 -7
-15 -3 -9 10 16 27 37 26 13 -1 13 -1 0 -6z m0 -33 c0 -5 -8 -10 -17 -10 -15
0 -16 2 -3 10 19 12 20 12 20 0z m-1547 -35 c-3 -13 -2 -33 2 -42 6 -16 8 -15
17 7 l11 25 9 -33 c7 -28 11 -31 28 -22 15 8 20 6 25 -10 3 -11 11 -20 16 -20
5 0 9 -9 9 -20 0 -30 -17 -24 -29 11 l-11 31 -17 -21 c-12 -15 -24 -20 -36
-15 -13 5 -15 10 -7 19 8 10 8 15 0 20 -13 8 -12 9 -27 -25 -9 -20 -12 -21
-12 -7 -1 11 -11 27 -22 36 -18 14 -20 21 -11 37 11 18 11 18 12 -2 0 -12 6
-24 14 -27 11 -4 13 3 10 34 -5 41 1 63 15 54 5 -2 6 -16 4 -30z m1104 29 c-3
-3 -12 -4 -19 -1 -8 3 -5 6 6 6 11 1 17 -2 13 -5z m388 -84 c3 -5 19 -10 35
-10 16 0 32 -4 35 -10 4 -6 -11 -8 -39 -6 -51 5 -69 13 -61 27 8 12 22 12 30
-1z m-1545 -40 c0 -11 -4 -20 -10 -20 -5 0 -10 9 -10 20 0 11 5 20 10 20 6 0
10 -9 10 -20z m1550 -40 c0 -5 -4 -10 -9 -10 -6 0 -13 5 -16 10 -3 6 1 10 9
10 9 0 16 -4 16 -10z m57 4 c-3 -3 -12 -4 -19 -1 -8 3 -5 6 6 6 11 1 17 -2 13
-5z m153 -14 c-20 -13 -33 -13 -25 0 3 6 14 10 23 10 15 0 15 -2 2 -10z m-133
-16 c-3 -3 -12 -4 -19 -1 -8 3 -5 6 6 6 11 1 17 -2 13 -5z m-1343 -19 c3 -8 1
-15 -4 -15 -6 0 -10 7 -10 15 0 8 2 15 4 15 2 0 6 -7 10 -15z m-428 -27 c-3
-13 -6 -29 -6 -36 0 -7 -4 -10 -10 -7 -11 7 -14 48 -3 58 14 15 25 6 19 -15z
m1789 2 c3 -6 -1 -7 -9 -4 -18 7 -21 14 -7 14 6 0 13 -4 16 -10z m678 3 c-7
-2 -19 -2 -25 0 -7 3 -2 5 12 5 14 0 19 -2 13 -5z m-2036 -49 c-3 -3 -12 -4
-19 -1 -8 3 -5 6 6 6 11 1 17 -2 13 -5z m123 -59 c-7 -8 -17 -15 -22 -15 -11
0 14 29 26 30 5 0 3 -7 -4 -15z m37 8 c-4 -3 -2 -12 4 -20 8 -9 8 -13 1 -13
-6 0 -14 5 -17 10 -6 10 2 30 12 30 4 0 3 -3 0 -7z m861 -64 c8 -12 8 -19 2
-19 -5 0 -15 9 -22 20 -7 11 -18 20 -24 20 -7 0 -15 7 -18 15 -5 14 -2 14 22
-1 16 -9 34 -25 40 -35z m375 34 c-7 -2 -21 -2 -30 0 -10 3 -4 5 12 5 17 0 24
-2 18 -5z m-1058 -39 c12 -5 14 -9 4 -14 -15 -10 -41 -1 -33 11 6 11 8 11 29
3z m480 -84 c3 -5 2 -10 -4 -10 -5 0 -13 5 -16 10 -3 6 -2 10 4 10 5 0 13 -4
16 -10z m-35 -30 c13 -9 13 -10 0 -10 -8 0 -22 5 -30 10 -13 9 -13 10 0 10 8
0 22 -5 30 -10z m1259 -6 c17 -4 31 -11 31 -15 0 -10 -45 -2 -70 12 -18 10 -3
11 39 3z m-2954 -34 c-3 -5 -11 -10 -16 -10 -6 0 -7 5 -4 10 3 6 11 10 16 10
6 0 7 -4 4 -10z m139 -35 c-7 -16 -24 -21 -24 -6 0 8 7 13 27 20 1 1 0 -6 -3
-14z m-209 -135 c-3 -5 -11 -10 -16 -10 -6 0 -7 5 -4 10 3 6 11 10 16 10 6 0
7 -4 4 -10z m137 -72 c-7 -7 -12 -8 -12 -2 0 14 12 26 19 19 2 -3 -1 -11 -7
-17z m199 -11 c-10 -9 -11 -8 -5 6 3 10 9 15 12 12 3 -3 0 -11 -7 -18z m-501
-77 c-20 -13 -33 -13 -25 0 3 6 14 10 23 10 15 0 15 -2 2 -10z m-100 -125 c-6
-8 -9 -18 -6 -24 3 -5 0 -11 -8 -14 -25 -10 -27 6 -4 30 24 25 38 32 18 8z"/>
<path d="M4130 1366 c0 -2 7 -6 15 -10 8 -3 15 -1 15 4 0 6 -7 10 -15 10 -8 0
-15 -2 -15 -4z"/>
<path d="M3440 1319 c0 -7 36 -19 57 -19 7 0 10 6 8 13 -5 12 -65 18 -65 6z"/>
<path d="M3115 1310 c3 -5 8 -10 11 -10 2 0 4 5 4 10 0 6 -5 10 -11 10 -5 0
-7 -4 -4 -10z"/>
<path d="M3040 1300 c0 -5 5 -10 11 -10 5 0 7 5 4 10 -3 6 -8 10 -11 10 -2 0
-4 -4 -4 -10z"/>
<path d="M3140 1290 c0 -5 5 -10 11 -10 5 0 7 5 4 10 -3 6 -8 10 -11 10 -2 0
-4 -4 -4 -10z"/>
<path d="M3360 1273 c0 -3 8 -12 18 -20 12 -10 14 -16 5 -19 -17 -7 -16 -24 0
-24 8 0 22 -9 32 -20 10 -11 36 -25 57 -32 21 -6 38 -15 38 -20 0 -4 7 -8 15
-8 25 0 17 17 -12 25 -15 3 -40 17 -56 31 -16 13 -33 24 -38 24 -6 0 -8 9 -4
19 4 14 -2 23 -25 34 -16 9 -30 13 -30 10z"/>
<path d="M3151 1244 c-18 -21 -6 -30 14 -11 8 9 15 18 15 21 0 11 -15 5 -29
-10z"/>
<path d="M3323 1238 c-29 -14 -29 -25 -1 -34 22 -7 53 20 42 37 -6 11 -13 10
-41 -3z m17 -18 c0 -5 -4 -10 -10 -10 -5 0 -10 5 -10 10 0 6 5 10 10 10 6 0
10 -4 10 -10z"/>
<path d="M3354 1188 c-4 -7 -3 -8 4 -4 7 4 12 2 12 -3 0 -6 5 -11 10 -11 15 0
12 17 -5 23 -8 4 -17 1 -21 -5z"/>
<path d="M3706 1091 c-4 -6 -6 -11 -4 -11 2 0 17 -4 34 -9 23 -6 31 -5 31 4 0
7 -8 10 -20 7 -10 -3 -23 1 -27 8 -5 9 -9 9 -14 1z"/>
<path d="M3366 1055 c15 -13 30 -22 32 -20 6 6 -40 44 -52 45 -5 0 4 -11 20
-25z"/>
<path d="M3765 1010 c3 -5 16 -10 28 -9 21 0 21 1 2 9 -28 12 -37 12 -30 0z"/>
<path d="M3916 1002 c-8 -13 7 -29 34 -36 24 -7 24 -6 6 8 -11 9 -24 16 -29
16 -4 0 -5 5 -2 10 3 6 4 10 1 10 -3 0 -7 -4 -10 -8z"/>
<path d="M3190 981 c0 -6 4 -13 10 -16 6 -3 7 1 4 9 -7 18 -14 21 -14 7z"/>
<path d="M3719 966 c14 -14 27 -26 29 -26 10 0 -26 44 -39 48 -8 3 -3 -7 10
-22z"/>
<path d="M3750 983 c0 -15 19 -37 26 -31 3 4 -1 14 -10 23 -9 9 -16 13 -16 8z"/>
<path d="M2950 973 c0 -10 58 -33 81 -33 8 1 3 7 -11 14 -37 20 -70 29 -70 19z"/>
<path d="M3260 932 c0 -4 14 -13 30 -19 30 -11 42 -2 18 14 -18 11 -48 14 -48
5z"/>
<path d="M3500 880 c0 -5 5 -10 10 -10 6 0 10 5 10 10 0 6 -4 10 -10 10 -5 0
-10 -4 -10 -10z"/>
<path d="M3280 870 c0 -5 5 -10 10 -10 6 0 10 5 10 10 0 6 -4 10 -10 10 -5 0
-10 -4 -10 -10z"/>
<path d="M3538 863 c7 -3 16 -2 19 1 4 3 -2 6 -13 5 -11 0 -14 -3 -6 -6z"/>
<path d="M3640 790 c0 -5 4 -10 9 -10 6 0 13 5 16 10 3 6 -1 10 -9 10 -9 0
-16 -4 -16 -10z"/>
<path d="M2942 3985 c0 -16 2 -22 5 -12 2 9 2 23 0 30 -3 6 -5 -1 -5 -18z"/>
<path d="M5555 4000 c-3 -5 3 -10 14 -10 12 0 21 5 21 10 0 6 -6 10 -14 10 -8
0 -18 -4 -21 -10z"/>
<path d="M2321 3963 c0 -17 -7 -34 -13 -36 -10 -4 -10 -6 0 -6 16 -1 25 21 19
51 -3 18 -5 16 -6 -9z"/>
<path d="M5455 3970 c3 -5 11 -10 16 -10 6 0 7 5 4 10 -3 6 -11 10 -16 10 -6
0 -7 -4 -4 -10z"/>
<path d="M2911 3914 c0 -11 3 -14 6 -6 3 7 2 16 -1 19 -3 4 -6 -2 -5 -13z"/>
<path d="M3064 3873 c8 -16 18 -45 21 -65 3 -21 11 -38 16 -38 7 0 8 13 4 33
-9 44 -34 97 -46 97 -6 0 -3 -12 5 -27z"/>
<path d="M2980 3851 c0 -5 5 -13 10 -16 6 -3 10 -2 10 4 0 5 -4 13 -10 16 -5
3 -10 2 -10 -4z"/>
<path d="M3052 3820 c0 -14 2 -19 5 -12 2 6 2 18 0 25 -3 6 -5 1 -5 -13z"/>
<path d="M1678 3593 c6 -2 18 -2 25 0 6 3 1 5 -13 5 -14 0 -19 -2 -12 -5z"/>
<path d="M5600 3350 c0 -5 6 -10 14 -10 8 0 18 5 21 10 3 6 -3 10 -14 10 -12
0 -21 -4 -21 -10z"/>
<path d="M3898 3253 c7 -3 16 -2 19 1 4 3 -2 6 -13 5 -11 0 -14 -3 -6 -6z"/>
<path d="M4168 3053 c6 -2 18 -2 25 0 6 3 1 5 -13 5 -14 0 -19 -2 -12 -5z"/>
<path d="M5805 2973 c-11 -2 -65 -13 -120 -23 -110 -21 -193 -39 -330 -70 -49
-11 -139 -29 -200 -39 -60 -11 -157 -28 -215 -39 -58 -12 -144 -24 -192 -28
-69 -5 -85 -10 -81 -21 4 -9 15 -12 32 -9 31 6 145 17 218 21 30 2 50 -1 47
-6 -3 -5 -27 -9 -53 -9 -62 0 -111 -10 -111 -22 0 -10 48 -5 88 9 10 3 6 -2
-7 -12 -15 -11 -49 -20 -92 -23 -38 -2 -69 -9 -69 -14 0 -6 24 -8 54 -6 64 4
63 -3 -2 -17 l-47 -11 107 -12 c59 -7 129 -11 155 -9 26 3 38 2 26 0 -13 -2
-23 -9 -23 -14 0 -5 -27 -7 -64 -3 -40 3 -73 1 -86 -6 -16 -8 -25 -8 -35 0 -7
6 -31 10 -52 7 l-38 -4 45 -2 c44 -2 44 -2 20 -15 -14 -8 -52 -17 -86 -21 -33
-3 -67 -11 -75 -16 -15 -9 19 -12 136 -11 l60 1 -45 -14 c-48 -14 -36 -19 41
-16 29 2 49 -2 57 -12 8 -9 36 -15 80 -17 37 -1 78 -4 92 -5 14 -1 48 -3 75
-5 48 -2 48 -2 17 -10 -19 -4 -61 -6 -95 -5 -151 8 -304 1 -320 -15 -5 -4 3
-5 17 -3 21 4 25 2 20 -10 -4 -12 6 -17 53 -22 32 -3 72 -12 88 -20 l30 -15
-35 5 c-77 10 -113 10 -117 -2 -7 -20 96 -32 257 -29 299 6 305 6 290 15 -8 5
-39 12 -67 16 -29 4 -53 10 -53 15 0 4 30 0 68 -9 117 -28 225 -16 525 56
l157 38 -1 187 c0 171 -2 186 -19 191 -10 2 -24 1 -31 -4 -19 -12 -39 -11 -39
1 0 6 9 10 20 10 10 0 24 8 29 18 6 9 11 11 11 5 0 -7 7 -13 15 -13 18 0 20
16 3 23 -10 4 -10 6 0 6 6 1 12 5 12 10 0 5 -6 9 -12 8 -7 0 -24 1 -38 2 -20
1 -22 3 -10 11 8 5 25 10 38 10 13 0 22 6 22 15 0 11 -5 12 -26 5 -14 -6 -40
-10 -57 -9 -31 1 -31 1 -7 9 24 8 24 8 -5 8 -16 0 -39 -2 -50 -5z m102 -159
c-3 -3 -12 -4 -19 -1 -8 3 -5 6 6 6 11 1 17 -2 13 -5z m-760 -10 c-3 -3 -12
-4 -19 -1 -8 3 -5 6 6 6 11 1 17 -2 13 -5z m-42 -24 c3 -5 -3 -10 -14 -10 -11
0 -22 -4 -25 -8 -3 -5 -31 -14 -63 -22 -32 -7 -67 -19 -78 -26 -11 -8 -26 -14
-35 -13 -10 0 -7 4 8 11 12 6 22 15 22 20 0 4 8 8 18 8 9 0 31 9 48 19 28 17
48 23 101 30 6 0 15 -3 18 -9z m42 -196 c-3 -3 -12 -4 -19 -1 -8 3 -5 6 6 6
11 1 17 -2 13 -5z m-209 -11 c-27 -2 -69 -2 -95 0 -27 2 -5 3 47 3 52 0 74 -1
48 -3z m151 -139 c83 -9 108 -24 31 -19 -108 8 -222 14 -287 15 -35 0 -63 4
-63 10 0 10 209 6 319 -6z"/>
<path d="M4333 2963 c-24 -2 -43 -9 -43 -15 0 -6 10 -8 23 -4 12 3 34 6 50 6
15 0 27 5 27 10 0 6 -3 9 -7 8 -5 -1 -27 -3 -50 -5z"/>
<path d="M4540 2830 c-25 -4 -56 -12 -70 -19 -21 -9 -16 -10 30 -5 30 4 69 12
85 19 33 15 22 16 -45 5z"/>
<path d="M4586 2605 c7 -18 12 -18 44 0 l25 14 -37 1 c-29 0 -36 -3 -32 -15z"/>
<path d="M4540 2600 c20 -13 33 -13 25 0 -3 6 -14 10 -23 10 -15 0 -15 -2 -2
-10z"/>
<path d="M4428 2573 c12 -2 30 -2 40 0 9 3 -1 5 -23 4 -22 0 -30 -2 -17 -4z"/>
<path d="M3261 2543 c-13 -3 -31 -11 -38 -19 -12 -12 -9 -13 19 -7 18 3 44 12
58 19 21 11 22 13 5 12 -11 0 -31 -3 -44 -5z"/>
<path d="M4585 2509 c-5 -7 9 -10 44 -8 28 2 54 0 57 -4 14 -14 26 -7 14 8
-15 18 -105 21 -115 4z"/>
<path d="M3048 2491 c-7 -10 -20 -21 -28 -24 -8 -4 -1 -4 15 -1 17 4 40 6 52
6 34 -2 36 15 3 26 -25 9 -32 8 -42 -7z"/>
<path d="M2815 2460 c-4 -6 7 -10 24 -10 17 0 31 5 31 10 0 6 -11 10 -24 10
-14 0 -28 -4 -31 -10z"/>
<path d="M5835 2434 c-247 -65 -408 -90 -665 -104 -113 -7 -221 -14 -240 -18
l-35 -6 35 -3 c44 -4 293 -50 341 -63 115 -31 318 -53 499 -53 41 0 62 -2 45
-5 -26 -4 -28 -5 -10 -12 16 -7 13 -9 -15 -9 -82 -2 -369 22 -420 35 -85 22
-349 72 -410 78 -30 3 -80 9 -110 12 -58 7 -105 8 -180 4 l-45 -3 55 -7 c30
-5 91 -13 135 -19 124 -18 140 -22 124 -32 -8 -5 -25 -8 -39 -8 -23 0 -23 1
-5 9 15 7 16 9 4 9 -17 1 -46 -26 -37 -34 2 -3 32 -8 66 -11 34 -4 60 -11 59
-17 -3 -14 51 -23 223 -36 136 -11 570 -13 688 -3 l52 4 0 159 c0 121 -3 159
-12 158 -7 0 -53 -12 -103 -25z m-522 -171 c-7 -2 -19 -2 -25 0 -7 3 -2 5 12
5 14 0 19 -2 13 -5z m-340 -60 c-7 -2 -19 -2 -25 0 -7 3 -2 5 12 5 14 0 19 -2
13 -5z m254 -14 c172 -2 136 -15 -48 -18 -136 -2 -169 2 -169 21 0 7 15 8 39
4 22 -3 102 -7 178 -7z m701 -26 c-10 -2 -28 -2 -40 0 -13 2 -5 4 17 4 22 1
32 -1 23 -4z"/>
<path d="M4610 2440 c20 -13 33 -13 25 0 -3 6 -14 10 -23 10 -15 0 -15 -2 -2
-10z"/>
<path d="M4753 2343 c9 -2 25 -2 35 0 9 3 1 5 -18 5 -19 0 -27 -2 -17 -5z"/>
<path d="M2700 2280 c17 -11 47 -14 36 -3 -3 4 -17 8 -29 10 -17 2 -19 1 -7
-7z"/>
<path d="M4703 2253 c9 -2 23 -2 30 0 6 3 -1 5 -18 5 -16 0 -22 -2 -12 -5z"/>
<path d="M4798 2228 c6 -6 18 -8 28 -6 14 3 12 5 -9 10 -19 3 -25 2 -19 -4z"/>
<path d="M4883 2124 c32 -17 36 -29 7 -21 -11 3 -17 1 -14 -4 3 -5 24 -7 47
-4 23 3 34 2 25 -2 -20 -9 -10 -30 14 -30 10 0 43 -7 75 -16 32 -9 112 -28
178 -43 66 -14 122 -27 125 -29 13 -8 171 -25 243 -26 42 -1 77 -5 77 -9 0
-16 -216 -2 -380 23 -91 14 -199 29 -240 33 -41 4 -91 8 -110 11 -132 14 -141
14 -75 -3 l30 -7 -30 -7 c-28 -5 -26 -7 28 -20 32 -8 58 -19 57 -25 -1 -11 0
-11 -85 -1 -55 6 -58 5 -34 -8 15 -7 89 -28 165 -46 359 -84 620 -157 691
-192 49 -24 10 -18 -93 16 -154 50 -201 62 -480 127 -51 11 -105 19 -120 17
-25 -3 -20 -7 31 -22 83 -25 243 -107 420 -217 161 -99 232 -141 335 -197 36
-19 77 -43 92 -53 14 -11 33 -19 42 -19 9 0 16 -4 16 -10 0 -5 7 -10 15 -10
12 0 15 19 15 115 l0 115 -102 49 c-57 26 -112 51 -122 55 -10 4 -16 9 -13 12
3 3 41 -10 84 -29 43 -19 95 -42 116 -51 l37 -15 0 175 c0 192 4 181 -62 176
-10 -1 -18 3 -18 9 0 8 13 9 40 5 l40 -6 0 91 0 92 -262 -8 c-338 -11 -338
-11 -603 10 -33 3 -98 7 -145 9 -80 5 -83 4 -57 -10z m147 -34 c11 -8 7 -9
-15 -4 -37 8 -45 14 -19 14 10 0 26 -5 34 -10z m465 -5 l30 -14 -30 6 c-16 3
-41 10 -55 14 l-25 7 25 1 c14 0 39 -6 55 -14z m62 -21 c-3 -3 -12 -4 -19 -1
-8 3 -5 6 6 6 11 1 17 -2 13 -5z m50 -10 c-3 -3 -12 -4 -19 -1 -8 3 -5 6 6 6
11 1 17 -2 13 -5z m196 -121 c-24 -2 -62 -2 -85 0 -24 2 -5 4 42 4 47 0 66 -2
43 -4z m-176 -29 c-3 -3 -12 -4 -19 -1 -8 3 -5 6 6 6 11 1 17 -2 13 -5z m166
-21 c-7 -2 -21 -2 -30 0 -10 3 -4 5 12 5 17 0 24 -2 18 -5z"/>
<path d="M2665 2080 c3 -5 10 -10 16 -10 5 0 9 5 9 10 0 6 -7 10 -16 10 -8 0
-12 -4 -9 -10z"/>
<path d="M4798 2063 c12 -2 22 -8 22 -12 0 -5 10 -9 23 -9 12 -1 51 -5 87 -11
152 -24 265 -39 268 -36 6 5 -396 77 -415 74 -4 -1 2 -4 15 -6z"/>
<path d="M2774 2039 c-3 -5 -2 -9 3 -10 29 -3 50 -7 66 -14 20 -8 23 1 5 18
-16 15 -66 18 -74 6z"/>
<path d="M2690 2026 c0 -2 7 -6 15 -10 8 -3 15 -1 15 4 0 6 -7 10 -15 10 -8 0
-15 -2 -15 -4z"/>
<path d="M1504 1979 c-3 -5 -16 -9 -30 -9 -13 0 -24 -5 -24 -11 0 -8 14 -10
41 -6 49 6 70 22 40 30 -12 3 -24 1 -27 -4z"/>
<path d="M1366 1925 c-10 -15 -16 -28 -14 -30 2 -2 22 2 43 10 56 20 71 18 44
-4 -13 -10 -30 -17 -39 -14 -10 3 -8 -1 5 -12 12 -11 14 -15 5 -13 -19 6 -90
-28 -90 -44 0 -7 15 -9 48 -4 32 4 42 3 32 -4 -10 -7 8 -10 63 -10 75 0 77 1
77 24 0 13 -7 26 -15 30 -17 6 -21 27 -4 24 6 -2 13 2 15 7 4 11 -78 52 -123
61 -24 5 -32 1 -47 -21z"/>
<path d="M3438 1943 c6 -2 18 -2 25 0 6 3 1 5 -13 5 -14 0 -19 -2 -12 -5z"/>
<path d="M1305 1930 c-18 -8 -17 -9 7 -9 15 -1 30 4 33 9 7 12 -12 12 -40 0z"/>
<path d="M3080 1930 c20 -13 43 -13 35 0 -3 6 -16 10 -28 10 -18 0 -19 -2 -7
-10z"/>
<path d="M2988 1893 c7 -3 16 -2 19 1 4 3 -2 6 -13 5 -11 0 -14 -3 -6 -6z"/>
<path d="M1325 1870 c-3 -5 -2 -10 4 -10 5 0 13 5 16 10 3 6 2 10 -4 10 -5 0
-13 -4 -16 -10z"/>
<path d="M1290 1835 c-8 -9 -8 -15 -2 -15 12 0 26 19 19 26 -2 2 -10 -2 -17
-11z"/>
<path d="M4588 1843 c7 -3 16 -2 19 1 4 3 -2 6 -13 5 -11 0 -14 -3 -6 -6z"/>
<path d="M3567 1819 c-4 -15 1 -22 19 -30 38 -14 54 -11 47 8 -5 13 -3 15 13
9 38 -15 88 -20 80 -8 -4 7 -22 12 -41 12 -19 0 -37 5 -40 11 -4 6 -13 8 -21
5 -7 -3 -16 -1 -19 4 -11 17 -32 11 -38 -11z m37 -5 c3 -8 2 -12 -4 -9 -6 3
-10 10 -10 16 0 14 7 11 14 -7z"/>
<path d="M3745 1780 c3 -5 12 -7 20 -3 21 7 19 13 -6 13 -11 0 -18 -4 -14 -10z"/>
<path d="M1345 1770 c-9 -14 13 -40 33 -40 24 0 8 -10 -24 -16 -16 -3 -36 -12
-44 -21 -13 -14 -13 -14 8 -8 16 5 30 1 44 -12 21 -18 21 -18 8 7 -10 21 -10
23 1 13 20 -19 35 -16 71 15 18 15 46 33 61 40 15 7 25 17 22 22 -8 13 -172
13 -180 0z m50 -20 c-3 -5 -10 -10 -16 -10 -5 0 -9 5 -9 10 0 6 7 10 16 10 8
0 12 -4 9 -10z m40 -20 c-3 -5 -11 -10 -16 -10 -6 0 -7 5 -4 10 3 6 11 10 16
10 6 0 7 -4 4 -10z"/>
<path d="M1296 1735 c-11 -8 -15 -15 -9 -15 19 0 43 12 43 21 0 13 -12 11 -34
-6z"/>
<path d="M3525 1738 c5 -13 80 -48 103 -48 29 0 8 19 -44 39 -65 25 -65 25
-59 9z"/>
<path d="M1510 1725 c-14 -8 -20 -14 -14 -15 5 0 19 7 30 15 24 18 16 19 -16
0z"/>
<path d="M4478 1729 c11 -11 75 -14 90 -5 7 4 30 5 50 1 20 -4 33 -3 29 1 -5
5 -46 9 -93 9 -46 1 -81 -2 -76 -6z"/>
<path d="M1240 1690 c-9 -6 -10 -10 -3 -10 6 0 15 5 18 10 8 12 4 12 -15 0z"/>
<path d="M1410 1663 c-56 -39 -98 -73 -89 -73 13 0 86 41 105 59 12 11 25 17
28 14 3 -4 6 -1 6 5 0 7 7 12 16 12 8 0 12 5 9 10 -10 15 -17 13 -75 -27z"/>
<path d="M3735 1691 c-3 -6 3 -9 14 -8 11 0 17 5 15 9 -7 11 -22 10 -29 -1z"/>
<path d="M4230 1690 c0 -5 4 -10 9 -10 5 0 18 -3 28 -6 16 -5 16 -4 -1 10 -23
18 -36 20 -36 6z"/>
<path d="M1304 1665 c-15 -11 -16 -14 -3 -15 8 0 24 7 35 15 15 11 16 14 3 15
-8 0 -24 -7 -35 -15z"/>
<path d="M3680 1670 c0 -7 24 -20 36 -20 13 0 1 19 -16 23 -11 3 -20 2 -20 -3z"/>
<path d="M3780 1655 c-10 -13 -9 -15 9 -15 11 0 21 4 21 9 0 18 -18 21 -30 6z"/>
<path d="M1425 1615 c-118 -76 -130 -85 -119 -85 5 0 31 14 57 30 26 17 50 30
53 30 3 0 26 16 51 35 64 49 41 44 -42 -10z"/>
<path d="M1524 1645 c-16 -12 -17 -14 -3 -15 9 0 19 7 23 15 7 19 5 19 -20 0z"/>
<path d="M4158 1653 c6 -2 18 -2 25 0 6 3 1 5 -13 5 -14 0 -19 -2 -12 -5z"/>
<path d="M1186 1622 l-19 -27 24 22 c12 12 21 24 18 27 -2 2 -13 -8 -23 -22z"/>
<path d="M4075 1620 c3 -5 8 -10 11 -10 2 0 4 5 4 10 0 6 -5 10 -11 10 -5 0
-7 -4 -4 -10z"/>
<path d="M1458 1587 c-63 -47 -97 -70 -132 -89 l-31 -16 27 -7 c21 -5 41 1 84
26 31 17 64 40 73 51 8 10 20 18 27 18 6 0 19 9 29 20 10 11 13 20 7 20 -6 0
-15 -7 -20 -16 -6 -11 -11 -13 -16 -5 -4 6 -2 11 3 11 6 0 11 5 11 10 0 17
-17 11 -62 -23z"/>
<path d="M1455 1479 c-17 -31 -45 -57 -45 -40 0 15 -33 -5 -48 -29 -7 -13 -7
-17 4 -17 7 0 10 5 7 10 -4 6 1 8 11 4 10 -4 15 -3 11 3 -3 6 5 10 19 10 24 0
106 62 106 80 0 4 -12 7 -26 6 -17 0 -31 -10 -39 -27z"/>
<path d="M1423 1473 c-15 -5 -17 -23 -4 -23 5 0 11 7 15 15 3 8 4 15 3 14 -1
0 -8 -3 -14 -6z"/>
<path d="M1360 1450 c-14 -11 -29 -20 -33 -20 -5 0 -20 -9 -34 -20 -20 -15
-22 -20 -9 -20 25 0 67 24 95 54 29 30 17 34 -19 6z"/>
<path d="M1561 1451 c-6 -4 -43 -36 -82 -71 -70 -64 -86 -90 -29 -50 17 12 33
20 36 17 3 -2 -11 -15 -31 -27 -20 -12 -39 -20 -42 -16 -3 3 -24 -10 -46 -30
-23 -19 -47 -32 -53 -30 -7 3 -20 -2 -31 -9 -31 -24 1 -17 139 31 73 25 147
50 163 55 36 11 71 36 63 45 -4 3 -17 -2 -31 -11 -17 -11 -27 -13 -32 -6 -3 6
-1 11 5 11 14 0 34 21 38 38 1 6 -7 12 -19 12 -11 0 -17 -4 -14 -10 3 -5 0 -7
-8 -4 -9 3 -28 -10 -47 -33 -18 -21 -29 -32 -25 -24 4 8 2 17 -6 22 -12 7 -12
9 -1 9 22 0 69 38 75 60 6 23 -3 32 -22 21z"/>
<path d="M1280 1370 c0 -5 5 -10 11 -10 5 0 7 5 4 10 -3 6 -8 10 -11 10 -2 0
-4 -4 -4 -10z"/>
<path d="M1390 1347 c-19 -19 -56 -46 -82 -61 -25 -15 -52 -34 -60 -43 -7 -9
13 0 45 20 31 20 61 37 65 37 4 0 26 18 47 40 47 48 34 54 -15 7z"/>
<path d="M1341 1346 c-13 -7 -19 -16 -14 -19 6 -4 18 2 28 13 21 23 19 24 -14
6z"/>
<path d="M1286 1305 c-4 -13 -2 -14 14 -5 23 13 26 20 6 20 -8 0 -16 -7 -20
-15z"/>
<path d="M1470 1264 c-68 -25 -127 -47 -129 -50 -3 -3 1 -9 9 -14 8 -6 10 -10
4 -10 -18 0 -76 -58 -65 -64 5 -3 17 -3 26 0 14 6 16 3 10 -15 -7 -22 -6 -22
19 -6 30 20 32 15 10 -27 -9 -16 -11 -27 -5 -24 6 4 11 2 11 -4 0 -7 7 -10 15
-6 19 7 19 -1 1 -20 -20 -19 -27 -18 -19 4 5 13 0 11 -20 -7 -32 -29 -34 -36
-8 -22 10 6 21 8 24 4 4 -3 18 2 32 11 31 20 32 11 3 -19 -38 -39 -78 -93 -78
-107 0 -5 5 -8 10 -8 6 0 10 6 10 14 0 8 16 28 35 45 19 17 35 34 35 38 0 11
41 36 47 29 3 -3 -2 -8 -11 -12 -9 -3 -16 -12 -16 -19 0 -7 -14 -25 -31 -39
-17 -14 -25 -26 -17 -26 8 0 7 -4 -4 -11 -10 -5 -18 -14 -18 -19 0 -15 36 -12
49 4 17 20 49 26 61 11 14 -17 4 -40 -23 -53 -21 -9 -21 -10 5 -8 14 0 24 4
21 9 -2 4 -2 7 1 7 2 0 12 3 22 7 11 4 15 3 11 -4 -5 -7 1 -9 15 -6 22 4 23 4
4 -11 -19 -16 -13 -21 20 -17 7 1 14 -8 17 -19 3 -12 13 -20 27 -20 17 0 21
-4 17 -20 -3 -13 -1 -18 5 -13 7 4 8 1 4 -6 -5 -7 -18 -17 -30 -22 -17 -8 -16
-8 9 -4 17 4 42 8 57 10 43 5 131 49 171 86 36 33 48 59 27 59 -5 0 -10 -4
-10 -10 0 -18 -19 -10 -25 11 -4 13 0 27 11 40 9 10 13 19 7 19 -20 0 -45 -38
-38 -59 5 -15 2 -21 -9 -21 -9 0 -16 -4 -16 -10 0 -5 -5 -10 -10 -10 -6 0 3
27 20 59 28 56 27 83 -2 65 -8 -5 -9 2 -5 23 3 17 1 35 -4 40 -6 6 -5 14 6 23
8 7 15 20 15 29 0 11 -11 4 -35 -21 -19 -20 -35 -39 -35 -43 0 -3 -10 -16 -21
-28 l-21 -22 6 23 c3 12 9 31 12 42 3 11 1 20 -5 20 -18 0 -12 18 7 24 14 5
16 15 13 53 l-4 48 -15 -32 c-9 -18 -22 -33 -30 -33 -13 0 -12 3 1 18 23 25
23 56 0 47 -36 -13 -73 -17 -73 -7 0 13 26 23 45 16 8 -4 15 -1 15 5 0 6 -4
11 -10 11 -16 0 -12 32 7 52 9 10 11 18 5 18 -6 0 -8 10 -4 23 5 20 4 21 -11
8 -15 -12 -17 -11 -17 3 0 21 6 22 -140 -30z m-85 -194 c-3 -5 -11 -10 -16
-10 -6 0 -7 5 -4 10 3 6 11 10 16 10 6 0 7 -4 4 -10z m35 -20 c0 -5 -2 -10 -4
-10 -3 0 -8 5 -11 10 -3 6 -1 10 4 10 6 0 11 -4 11 -10z m84 -144 c-10 -8 -21
-12 -24 -10 -5 6 21 24 34 24 6 0 1 -6 -10 -14z m126 -130 c0 -3 -4 -8 -10
-11 -5 -3 -10 -1 -10 4 0 6 5 11 10 11 6 0 10 -2 10 -4z"/>
<path d="M1642 1228 c-16 -16 -15 -25 5 -32 10 -4 14 -4 11 0 -4 4 -3 15 3 25
11 21 -1 25 -19 7z"/>
<path d="M1240 1210 c-9 -6 -10 -10 -3 -10 6 0 15 5 18 10 8 12 4 12 -15 0z"/>
<path d="M1287 1183 c-9 -10 -17 -12 -17 -6 0 13 -37 6 -46 -9 -3 -5 6 -6 22
-2 20 5 25 4 19 -6 -4 -7 6 -2 24 11 17 12 31 24 31 26 0 9 -18 1 -33 -14z"/>
<path d="M1240 1130 c0 -6 -6 -10 -12 -9 -24 3 -41 -1 -34 -8 12 -13 39 -12
52 2 17 16 18 25 4 25 -5 0 -10 -5 -10 -10z"/>
<path d="M1710 1055 c-11 -13 -10 -14 4 -9 9 3 16 10 16 15 0 13 -6 11 -20 -6z"/>
<path d="M855 1024 c-27 -13 -39 -21 -25 -18 29 8 80 32 80 39 0 7 1 7 -55
-21z"/>
<path d="M930 1035 c0 -7 30 -13 34 -7 3 4 -4 9 -15 9 -10 1 -19 0 -19 -2z"/>
<path d="M1791 984 c0 -11 3 -14 6 -6 3 7 2 16 -1 19 -3 4 -6 -2 -5 -13z"/>
<path d="M1817 981 c-3 -12 -1 -21 3 -21 15 0 23 21 12 32 -6 6 -11 2 -15 -11z"/>
<path d="M968 973 c-21 -5 -22 -12 -7 -33 9 -12 10 -12 5 4 -5 13 -2 17 9 12
9 -3 15 0 15 9 0 8 -1 14 -2 14 -2 -1 -11 -3 -20 -6z"/>
<path d="M872 890 c-7 -11 -12 -27 -12 -35 0 -8 -4 -15 -10 -15 -5 0 -10 5
-10 10 0 6 -4 10 -10 10 -5 0 -10 -8 -10 -17 0 -15 8 -18 41 -16 33 1 48 8 73
33 32 34 17 32 -21 -2 -21 -20 -21 -20 -28 2 -4 12 -4 24 -1 27 3 4 6 -1 6
-10 0 -25 15 -21 34 8 17 26 9 34 -12 13 -10 -10 -15 -10 -20 -1 -6 9 -11 7
-20 -7z"/>
<path d="M1047 883 c7 -17 -14 -17 -20 0 -4 8 -8 9 -14 2 -4 -6 -27 -24 -50
-41 -33 -24 -194 -167 -235 -210 -5 -4 -8 0 -8 9 0 8 7 23 16 32 22 22 13 27
-19 12 -14 -6 -36 -29 -49 -49 -13 -21 -28 -38 -34 -38 -6 0 -14 -18 -18 -40
-8 -52 -22 -51 -38 3 -13 42 -13 41 -19 -63 -3 -71 -8 -98 -13 -82 -16 44 -65
14 -66 -41 0 -15 -9 -41 -20 -57 -11 -17 -29 -43 -40 -60 -14 -20 -20 -46 -20
-85 0 -48 -3 -55 -19 -55 -24 0 -111 -82 -111 -104 0 -25 38 -20 43 7 l4 22 2
-22 1 -23 225 0 c218 0 225 1 225 20 0 11 7 20 15 20 8 0 15 6 15 13 0 7 9 20
20 30 11 9 20 24 20 32 0 9 9 15 22 15 12 0 19 3 15 6 -3 3 -54 -4 -112 -16
-110 -22 -164 -22 -85 0 139 39 252 79 228 79 -33 1 -35 11 -8 36 11 10 20 22
20 27 0 5 7 16 15 24 17 17 20 44 5 44 -5 0 -10 -8 -10 -17 0 -12 -3 -14 -11
-6 -11 11 -2 41 13 42 4 1 27 22 50 48 42 46 42 46 11 28 -18 -11 -33 -22 -33
-25 0 -4 -6 -7 -13 -7 -16 0 -77 -43 -77 -55 0 -4 -6 -8 -14 -8 -8 0 -16 -6
-19 -12 -2 -7 -8 -10 -12 -6 -5 5 31 46 79 93 48 47 83 85 77 85 -5 0 -13 -5
-16 -11 -4 -6 -13 -8 -21 -5 -8 3 -11 0 -8 -8 3 -7 -2 -19 -11 -26 -12 -10
-15 -10 -15 5 0 14 -3 15 -15 5 -8 -7 -15 -18 -15 -26 0 -7 -9 -18 -19 -23
-16 -9 -19 -7 -17 14 0 14 4 25 7 25 4 0 9 10 12 22 4 12 9 19 13 15 4 -4 16
5 26 20 21 33 23 45 5 41 -7 -2 -14 2 -17 7 -2 6 9 12 26 15 31 6 42 40 14 47
-12 4 -12 3 -1 -5 10 -7 10 -11 1 -17 -7 -4 -16 -1 -21 6 -8 12 -11 12 -20 -1
-8 -12 -9 -9 -3 10 6 22 5 23 -9 11 -9 -7 -21 -11 -27 -9 -6 2 8 25 32 51 24
27 52 59 63 72 11 14 26 25 33 25 6 0 12 7 12 15 0 18 -16 20 -23 3 -6 -17
-67 -52 -67 -40 0 5 7 15 15 22 8 7 12 16 9 21 -3 5 2 9 11 9 8 0 20 10 25 23
5 12 9 19 9 14 1 -4 12 0 25 9 15 9 22 21 19 30 -6 16 8 19 23 5 5 -6 15 -1
25 13 16 20 16 22 -1 22 -10 0 -16 -6 -13 -13z m-47 -43 c-8 -5 -19 -10 -25
-10 -5 0 -3 5 5 10 8 5 20 10 25 10 6 0 3 -5 -5 -10z m-107 -85 c-3 -9 -8 -14
-10 -11 -3 3 -2 9 2 15 9 16 15 13 8 -4z m-23 -74 c0 -6 -4 -13 -10 -16 -5 -3
-10 1 -10 9 0 9 5 16 10 16 6 0 10 -4 10 -9z m-66 -16 c-4 -8 -8 -15 -10 -15
-2 0 -4 7 -4 15 0 8 4 15 10 15 5 0 7 -7 4 -15z m23 -121 c-3 -3 -12 -4 -19
-1 -8 3 -5 6 6 6 11 1 17 -2 13 -5z m23 -254 c0 -5 -5 -10 -11 -10 -5 0 -7 5
-4 10 3 6 8 10 11 10 2 0 4 -4 4 -10z"/>
<path d="M1430 880 c-12 -8 -11 -10 8 -10 12 0 22 5 22 10 0 13 -11 13 -30 0z"/>
<path d="M1330 850 c0 -5 5 -10 10 -10 6 0 10 5 10 10 0 6 -4 10 -10 10 -5 0
-10 -4 -10 -10z"/>
<path d="M803 796 c0 -24 0 -24 24 -8 24 15 24 16 7 23 -29 12 -31 11 -31 -15z"/>
<path d="M1503 786 c3 -7 0 -19 -6 -26 -10 -10 -7 -10 11 -1 25 13 30 41 6 41
-10 0 -14 -6 -11 -14z"/>
<path d="M1870 780 c0 -5 5 -10 10 -10 6 0 10 5 10 10 0 6 -4 10 -10 10 -5 0
-10 -4 -10 -10z"/>
<path d="M1790 767 c-150 -80 -179 -97 -162 -97 10 0 45 9 77 20 31 11 62 17
68 13 6 -4 8 0 4 11 -4 9 -3 15 2 12 8 -5 30 15 45 42 9 16 -3 15 -34 -1z"/>
<path d="M1550 759 c0 -5 5 -7 10 -4 6 3 10 8 10 11 0 2 -4 4 -10 4 -5 0 -10
-5 -10 -11z"/>
<path d="M1836 753 c-6 -14 -5 -15 5 -6 7 7 10 15 7 18 -3 3 -9 -2 -12 -12z"/>
<path d="M748 753 c6 -2 12 -13 12 -24 0 -10 5 -19 10 -19 6 0 10 6 10 13 0
16 -20 37 -34 36 -6 0 -5 -3 2 -6z"/>
<path d="M1790 700 c-8 -5 -12 -12 -9 -15 8 -8 39 5 39 16 0 11 -11 11 -30 -1z"/>
<path d="M955 689 c-4 -6 -5 -12 -2 -15 2 -3 7 2 10 11 7 17 1 20 -8 4z"/>
<path d="M1688 668 l-37 -21 25 -13 c17 -9 32 -10 47 -4 35 15 60 38 52 49
-10 16 -46 12 -87 -11z m52 -6 c0 -12 -40 -33 -51 -26 -6 4 -1 12 13 19 28 16
38 18 38 7z"/>
<path d="M911 654 c-7 -8 -11 -17 -9 -20 3 -2 13 5 23 16 10 11 14 20 9 20 -5
-1 -15 -8 -23 -16z"/>
<path d="M2182 586 c-35 -34 -42 -52 -13 -37 18 10 56 60 49 66 -2 1 -18 -11
-36 -29z"/>
<path d="M2130 606 c0 -2 7 -7 16 -10 8 -3 12 -2 9 4 -6 10 -25 14 -25 6z"/>
<path d="M2260 589 c0 -5 5 -7 10 -4 6 3 10 8 10 11 0 2 -4 4 -10 4 -5 0 -10
-5 -10 -11z"/>
<path d="M2126 573 c-6 -14 -5 -15 5 -6 7 7 10 15 7 18 -3 3 -9 -2 -12 -12z"/>
<path d="M1111 439 c-35 -28 -22 -32 14 -3 17 13 26 24 20 24 -5 -1 -21 -10
-34 -21z"/>
<path d="M1592 405 c-45 -24 -78 -46 -73 -50 11 -6 68 21 132 61 20 13 40 20
45 16 4 -4 4 -1 0 6 -9 16 -8 16 -104 -33z"/>
<path d="M1576 425 c-11 -8 -15 -15 -10 -15 6 0 19 7 30 15 10 8 15 14 9 14
-5 0 -19 -6 -29 -14z"/>
<path d="M980 360 c-8 -5 -10 -10 -5 -10 6 0 17 5 25 10 8 5 11 10 5 10 -5 0
-17 -5 -25 -10z"/>
<path d="M1448 323 c7 -3 16 -2 19 1 4 3 -2 6 -13 5 -11 0 -14 -3 -6 -6z"/>
<path d="M1510 315 c-8 -9 -8 -15 -2 -15 12 0 26 19 19 26 -2 2 -10 -2 -17
-11z"/>
<path d="M1455 150 c-3 -5 -1 -10 4 -10 6 0 11 5 11 10 0 6 -2 10 -4 10 -3 0
-8 -4 -11 -10z"/>
<path d="M1436 114 c-9 -23 -2 -28 13 -10 7 8 8 17 3 20 -6 3 -13 -1 -16 -10z"/>
<path d="M1501 57 c-13 -21 -12 -21 5 -5 10 10 16 20 13 22 -3 3 -11 -5 -18
-17z"/>
<path d="M1440 20 c0 -5 7 -10 16 -10 8 0 12 5 9 10 -3 6 -10 10 -16 10 -5 0
-9 -4 -9 -10z"/>
</g>
</svg>
